<mxfile host="app.diagrams.net" modified="2023-05-24T14:06:32.889Z" agent="Mozilla/5.0 (Macintosh; Intel Mac OS X 10_15_7) AppleWebKit/537.36 (KHTML, like Gecko) Chrome/113.0.0.0 Safari/537.36" etag="4lO5D5VqSu-nRSWroAsG" version="21.2.1" type="device" pages="2">
  <diagram name="Page-1" id="pIoVD0iAspJO_9bzJm9g">
    <mxGraphModel dx="1234" dy="1106" grid="1" gridSize="10" guides="1" tooltips="1" connect="1" arrows="1" fold="1" page="1" pageScale="1" pageWidth="850" pageHeight="1100" math="0" shadow="0">
      <root>
        <mxCell id="0" />
        <mxCell id="1" parent="0" />
        <mxCell id="drv6iqz0Df6hRnRfteLl-40" value="" style="ellipse;shape=cloud;whiteSpace=wrap;html=1;fontStyle=1;labelPosition=center;verticalLabelPosition=bottom;align=center;verticalAlign=top;strokeWidth=2;fillColor=#f5f5f5;fontColor=#333333;strokeColor=#666666;dashed=1;" vertex="1" parent="1">
          <mxGeometry x="440" y="510" width="390" height="250" as="geometry" />
        </mxCell>
        <mxCell id="drv6iqz0Df6hRnRfteLl-38" style="edgeStyle=orthogonalEdgeStyle;orthogonalLoop=1;jettySize=auto;html=1;exitX=0;exitY=0.75;exitDx=0;exitDy=0;entryX=1;entryY=0.75;entryDx=0;entryDy=0;strokeWidth=2;" edge="1" parent="1" source="drv6iqz0Df6hRnRfteLl-36" target="drv6iqz0Df6hRnRfteLl-2">
          <mxGeometry relative="1" as="geometry">
            <Array as="points">
              <mxPoint x="510" y="470" />
              <mxPoint x="510" y="435" />
            </Array>
          </mxGeometry>
        </mxCell>
        <mxCell id="BXOqnoNX5bFxCncvQAfk-1" value="&lt;b&gt;Capability Callbacks&lt;/b&gt;" style="edgeLabel;html=1;align=center;verticalAlign=middle;resizable=0;points=[];" vertex="1" connectable="0" parent="drv6iqz0Df6hRnRfteLl-38">
          <mxGeometry x="0.4222" y="2" relative="1" as="geometry">
            <mxPoint x="64" y="43" as="offset" />
          </mxGeometry>
        </mxCell>
        <mxCell id="drv6iqz0Df6hRnRfteLl-36" value="WASM Functions" style="rounded=1;whiteSpace=wrap;html=1;fontStyle=1;labelPosition=center;verticalLabelPosition=bottom;align=center;verticalAlign=top;fillColor=#f5f5f5;fontColor=#333333;strokeColor=#666666;dashed=1;strokeWidth=2;" vertex="1" parent="1">
          <mxGeometry x="722" y="320" width="140" height="200" as="geometry" />
        </mxCell>
        <mxCell id="drv6iqz0Df6hRnRfteLl-22" style="edgeStyle=orthogonalEdgeStyle;rounded=0;orthogonalLoop=1;jettySize=auto;html=1;exitX=1;exitY=0.5;exitDx=0;exitDy=0;entryX=0;entryY=0.5;entryDx=0;entryDy=0;strokeWidth=2;" edge="1" parent="1" source="drv6iqz0Df6hRnRfteLl-1" target="drv6iqz0Df6hRnRfteLl-2">
          <mxGeometry relative="1" as="geometry" />
        </mxCell>
        <mxCell id="drv6iqz0Df6hRnRfteLl-1" value="Client" style="rounded=1;whiteSpace=wrap;html=1;strokeWidth=2;fontStyle=1;fillColor=#dae8fc;strokeColor=#6c8ebf;" vertex="1" parent="1">
          <mxGeometry x="50" y="390" width="120" height="60" as="geometry" />
        </mxCell>
        <mxCell id="drv6iqz0Df6hRnRfteLl-9" value="" style="shape=image;verticalLabelPosition=bottom;labelBackgroundColor=default;verticalAlign=top;aspect=fixed;imageAspect=0;image=https://upload.wikimedia.org/wikipedia/commons/thumb/5/5b/HTTP_logo.svg/2560px-HTTP_logo.svg.png;strokeWidth=2;rounded=0;" vertex="1" parent="1">
          <mxGeometry x="173.81" y="394.4" width="38.51" height="20.6" as="geometry" />
        </mxCell>
        <mxCell id="drv6iqz0Df6hRnRfteLl-19" value="" style="group;strokeWidth=2;fontStyle=1;rounded=0;fillColor=none;strokeColor=none;" vertex="1" connectable="0" parent="1">
          <mxGeometry x="290" y="390" width="120" height="60" as="geometry" />
        </mxCell>
        <mxCell id="drv6iqz0Df6hRnRfteLl-2" value="&lt;b&gt;Tarmac&lt;/b&gt;" style="rounded=1;whiteSpace=wrap;html=1;labelPosition=center;verticalLabelPosition=top;align=center;verticalAlign=bottom;strokeWidth=2;fillColor=#f5f5f5;strokeColor=#666666;fontColor=#333333;" vertex="1" parent="drv6iqz0Df6hRnRfteLl-19">
          <mxGeometry width="120" height="60" as="geometry" />
        </mxCell>
        <mxCell id="drv6iqz0Df6hRnRfteLl-4" value="" style="shape=image;verticalLabelPosition=bottom;verticalAlign=top;imageAspect=0;aspect=fixed;image=data:image/png,iVBORw0KGgoAAAANSUhEUgAAAjAAAADZCAYAAAA+JQoMAAAAAXNSR0IArs4c6QAAAMJlWElmTU0AKgAAAAgABwESAAMAAAABAAEAAAEaAAUAAAABAAAAYgEbAAUAAAABAAAAagEoAAMAAAABAAIAAAExAAIAAAARAAAAcgEyAAIAAAAUAAAAhIdpAAQAAAABAAAAmAAAAAAAAABIAAAAAQAAAEgAAAABUGl4ZWxtYXRvciAzLjkuOAAAMjAyMToxMDoxNyAxNDoxMDoxNwAAA6ABAAMAAAABAAEAAKACAAQAAAABAAACMKADAAQAAAABAAAA2QAAAADdjcWiAAAACXBIWXMAAAsTAAALEwEAmpwYAAADqmlUWHRYTUw6Y29tLmFkb2JlLnhtcAAAAAAAPHg6eG1wbWV0YSB4bWxuczp4PSJhZG9iZTpuczptZXRhLyIgeDp4bXB0az0iWE1QIENvcmUgNi4wLjAiPgogICA8cmRmOlJERiB4bWxuczpyZGY9Imh0dHA6Ly93d3cudzMub3JnLzE5OTkvMDIvMjItcmRmLXN5bnRheC1ucyMiPgogICAgICA8cmRmOkRlc2NyaXB0aW9uIHJkZjphYm91dD0iIgogICAgICAgICAgICB4bWxuczp0aWZmPSJodHRwOi8vbnMuYWRvYmUuY29tL3RpZmYvMS4wLyIKICAgICAgICAgICAgeG1sbnM6ZXhpZj0iaHR0cDovL25zLmFkb2JlLmNvbS9leGlmLzEuMC8iCiAgICAgICAgICAgIHhtbG5zOnhtcD0iaHR0cDovL25zLmFkb2JlLmNvbS94YXAvMS4wLyI+CiAgICAgICAgIDx0aWZmOkNvbXByZXNzaW9uPjA8L3RpZmY6Q29tcHJlc3Npb24+CiAgICAgICAgIDx0aWZmOlJlc29sdXRpb25Vbml0PjI8L3RpZmY6UmVzb2x1dGlvblVuaXQ+CiAgICAgICAgIDx0aWZmOlhSZXNvbHV0aW9uPjcyPC90aWZmOlhSZXNvbHV0aW9uPgogICAgICAgICA8dGlmZjpZUmVzb2x1dGlvbj43MjwvdGlmZjpZUmVzb2x1dGlvbj4KICAgICAgICAgPHRpZmY6T3JpZW50YXRpb24+MTwvdGlmZjpPcmllbnRhdGlvbj4KICAgICAgICAgPGV4aWY6UGl4ZWxYRGltZW5zaW9uPjU2MDwvZXhpZjpQaXhlbFhEaW1lbnNpb24+CiAgICAgICAgIDxleGlmOkNvbG9yU3BhY2U+MTwvZXhpZjpDb2xvclNwYWNlPgogICAgICAgICA8ZXhpZjpQaXhlbFlEaW1lbnNpb24+MjE3PC9leGlmOlBpeGVsWURpbWVuc2lvbj4KICAgICAgICAgPHhtcDpDcmVhdG9yVG9vbD5QaXhlbG1hdG9yIDMuOS44PC94bXA6Q3JlYXRvclRvb2w+CiAgICAgICAgIDx4bXA6TW9kaWZ5RGF0ZT4yMDIxLTEwLTE3VDE0OjEwOjE3PC94bXA6TW9kaWZ5RGF0ZT4KICAgICAgPC9yZGY6RGVzY3JpcHRpb24+CiAgIDwvcmRmOlJERj4KPC94OnhtcG1ldGE+CrXx0l4AADJHSURBVHgB7Z0J3B1VecaBEAiELSxhTz4ggLIjO7IEKCAgZQeRTVuXVq12UX9aa4tWtLW02hbr0sUKAtKCBURZhJCwagAlKjuYBAJhTyBAICHQ54F7yDiZe+ecM+fcOTPzvL/f8818M2d5z3/uzH3nnDNzl1tOJgIiIAIiIAIiIAIiIAIiIAIiIAIiIAIiIAIiIAIiIAIiIAIiIAIiIAIiIAIiIAIiIAIiIAIiIAIiIAIiIAIiIAIiIAIiIAIiIAIiIAIiIAIiIAIiIAIiIAIiIAIiIAIiIAIiIAIiIAIiIAIiIAIiIAIiIAIiIAIiIAIiIAIiIAIiIAIiIAIiIAIiIAIiIAIiIAIiIAIiIAIiIAL+BJb3z6qcItAIAhPh5X7Q643wVk6KgAi4EOB32DzoamixS0albT6BFZvfBLVABAYS2AN7zx2YQjtFQASaTOB+OD8NUgDT5KPo4fsKHnmURQSaROC1JjkrX0VABJwJLHLOoQytIKAAphWHUY0QAREQAREQgW4RUADTreOt1oqACIiACIhAKwgogGnFYVQjREAEREAERKBbBBTAdOt4q7UiIAIiIAIi0AoCCmBacRjVCBEQAREQARHoFgEFMN063mqtCIiACIiACLSCgAKYVhxGNUIEREAEREAEukVAAUy3jrdaKwIiIAIiIAKtIKAAphWHUY0QAREQAREQgW4RUADTreOt1oqACIiACIhAKwgogGnFYVQjREAEREAERKBbBPRjjt063mqtPYHnkPRX9smVUgREoAIB/lr8mtAOEH9hWiYCpQQUwJQiUoKOErgT7Z7c0bar2SJQB4F3otKpkL6X6qDfwDo1hNTAgyaXRUAERKCFBNTz0sKDGrNJCmBi0lXZIiACIiACIiACUQgogImCVYWKgAiIgAiIgAjEJKAAJiZdlS0CIiACIiACIhCFgAKYKFhVqAiIgAiIgAiIQEwCCmBi0lXZIiACIiACIiACUQgogImCVYWKgAiIgAiIgAjEJBDiefuN4eC/QWMhvozImFnvt2Q6m3226fJl5fNl92fXXdMV5c1uM+umXP5vtmWX2XWT1iz75cnuN+tmmc2T3TZofdC+bHlFvma3ZddZJs3kL9o3D/vPh15lQpkIiIAIiIAIuBIIEcAwcDkEGuNaudJ3lsAjaPlFkAKYzn4E1HAREAERqEYgxBAS77BfqeaGcneMgD4vHTvgaq4IiIAIhCYQIoChT3qDYugjo/JEQAREQAREQAT6EggRwCh46YtXO/oQMPNj+uzWZhEQARFwIsDvIX0XOSFrfuIQc2BIQR+c5n8W1AIREAERaCIBDknzhyA/Dj3T07NY8mEBaj7E/yn+yvxCaBG0uCfzoAH+lTWJQKgApkltlq/1E9AFo/5jIA9EoC0EXkND1oPeNaBBS7CPDw1QL0AMaor0NLabIMgsF2AbgyQjBj+yBAgogEngIHTQBQUwHTzoarIIRCTAIGaQjcJOamWIT86uD5UZr1MMfF6G2HOTl+nZyQY9XOd25mFPjxF7e2SBCYQIYDT2GPigqDgREAEREIHaCfC7jd+Rq/XEd57ZGIMe9to8n1madfbqMMgxQQ+XHOZ6saeXMkuWIxtAIEQAM6B47RIBERABERCBThFgT89aPdk2nMNTHNrKi/N2ssEO17mNAVE+LYOgTpkCmE4d7mQaqyGkZA6FHBEBEUiAAIe2qHUcfGFvTbbHhuscvsoGPKbHh8NfplfI9AZxycCpsRYigNEQUmMPf22OK4CpDb0qFgERaAmBVdEOal3L9nCekJmTwyXn6TCoMZOVTbBjhrUY4DDweQq6B0rOQgQwbJQeo07u0MohERABERABEXiLAN/7xgnMlK3xqS326kyG7oKSslAvsgsVCCUFR85EI7ASSlYvTDS8KlgEREAEghDgdzt7eE4JUlrgQkIEHo/2Gjc645vpkRn2ki5kh7T61W+Trihv2TazP1u+2Va0LNqWzWvWzbIsvdlflN7sK1pmt5l12zJM+qJlv238zJQ99sj6Ze4EeB5yLN01QGR3ctWnHlg3g1MXM4+puuTJp+XnbBXIfN7y+/v9z0dbY7zTgwyy18N+9Rdt5x1vo+clFDVK2xpP4ES04O8hDiklYyECGI6TXZxMi+SICHSbwCfR/PdALgEiv/i/Af07VMXORubJkG3drPcJ6FSI4+y+9k5k/BfIJYBh7/M5UNU2o4jfsTH47wJoc8g1iKT/j0MnQJybIBOBVAhsAUeOgPjZTsZCBDDJNEaOiIAIvPFo5Q4eHPgW0ypf5uOQn1+8G3rU/XbkqRLATEb+nT3qrVJnv+r2xo5j+u202L4j0hwAXW6RVklEYJgETkNlF0KugXk0H0PMgYnmnAoWARFwJjAVOXyGRbZBvtWda1uagQHE+KX/Oq3t65R62cR7LbupdAt7fqaXpnJPwN6vqsbuepkIpEZgPzjE60QypgAmmUMhR0QgCIEHUMqDHiVxyGNTj3wmC3se+AIvH+MQkO+1iO/N8LmozkC+x3ycHZBnbew7bMB+212HImGVY2Fbj9KJgAuBVZH4JJcMsdP6XjRi+6XyRUAE/AhwMu6tHlk58XRXj3wmy4FmxWPJIa/1PPIxy1bQxh55r/PIU5bl95Bgk7JEFvv51EeIQMiiKiURAScCJyP1mk45IiZWABMRrooWgZoITPWsd3fPfBOQbzvPvMzGAMSnF4V5d4Fcn/jhkz63MHNgC3l3yrJ0fQ58gAqKm4ltZ0Jfh74HXQZNg9hDNxviO1BeghZDycz9gC912SRUfEhdlefr1STePBH9LwLNJ3AzmsCnWFzntHACKa8J/IJ3Mc5/8e1BMfXsj5XrzT8OSw4/udocZOAXVEjbHIUdFLDAPVHW9lBoPwO62Iqi+Fn4Qq4lHAplj6R5LQB7HDg8yOFKyqwzeH431DU7HQ3+3xQarQAmhaMgH0QgLIFHUBy/+PZxLJa9IBy+4KO8LjbZJXGftJyIyy+OJX32F21eDRt9nrgyAV5Rmb7bfh8ZQ3atc77BsZACGN8jYpePvVz5zx0/gwt7YilPQw9xJWdH4f8uBjAHoN08736V4zH0f9VFOXTkqlAEohPwHSIZB8/YC+NivFN1DZSKyt8JGxk8udgIErPnw9WmumYoSc8bwRhPDh2DcseW1K3d9RHgCyO7aPxMhhwu9WaoAMYbnTKKQNIEpnh4tzzy7OGYbwuk38oxT1Hy8djIIMbFdkZivjjOxXwnOQ+qg0MJ7xiUwHMfe8R8HhH3rE7ZRMCaAAP2taxTR0qoACYSWBUrAjUTuBP1z/XwgUEBAxlb2w0J17BNXJKO82BczKfn515U8IBLJRZpj0OaGHfjHNp4j0X9SiICwybAG5faJ/MqgBn2YVd9IjAcAk+iml94VMUhJM6/sLWDbBNapGPvD7+0bYwBg+twF8vlRGGfF/0xb5GtiY1HF+0ItO1QlMPeKZkIpESANzmczFtrDFFr5SkdDfkiAi0j8DraM82jTRshD++ubIxPOVV5d0y+DgYktk8z0c+35Quw+P8mizQuSfZF4kkuGRzTboL0td/pOvqs5N0gwB7TbetsqgKYOumrbhGIS+AGFM8JvS7Gng0+YWBjnPsS8subj6fublMx0tBH9n642HNIPN0lg0VavtjLZcjNoshlknDCpK7Vy2DRhpoJ8CnAWoc4dVLU/AlQ9SIQkcB9KLvo8c+yKjkp1cbY+7CSTULLNAwEbOe18KcLXG0GMsx1zTQgPXtHXIfQrkKemQPKLNrFO13bXrGi/NomArEInICCa5vMqwAm1mFVuSJQP4H5cOE2Dzf2RB6ba8Nkj7LLsvCpm7K6OU/GNsjK1sf3vyzJbqi4fjjyr+9YxjlI/yPHPByq4zthZCKQGoEt4RDnadViZReKWpxSpSIgAsEIXOdREoeGOMdkkPGdLTEeHeaY+oaDKsa+dSC+pdbVfFj0q4NBFO8+XYwvCLwBusIlUy8tAxgO78lEIDUCp8GhWmKJWipNjb78EYEWE2APzAuO7WOXcNnkPAYQmzqWa5OcdZf1rtA31ydzHkWeO20csEyzDdK5/owBA6gF0M8g10e5GSzuCslEIDUCB8Ihng9DNwUwQ0euCkVgqAT4Rcm5MC7G6wLfBzPIeNGytdeQkLIxzoPhENYgcw0cWBYDuWcHFeq473ikX8Uxzw976RnEXO2Yl2/75WRemQikRoDnwal1OKUApg7qqlMEhkdgEaryeXR4UBDB4ROXSbTXIv1shyZz0mq/axMDnLIemqKqbsDG14t2eGxbFXmOdsz3MNJPzeRhMGMb1JlsR2LF9ckrk1dLEYhJgMOpQ/9s9rtIxGyoyhYBERgugake1XGIiI9JFhnnqJT10GTzfRf/3JHdULLO7ugJfdLQJ5e6Wcyr0DSuBDIGd9s5lsUgLtsDxB6hex3LGEF6BneyZhN4Hu7/CmJQPx9aDLkGs8iSlG0Ob949bI/YLSkTARFoN4FfoHlPQbYviSMNBilbQ0WBB9+YOw6yMV6s+fTPOhCHXWyM82AYpMwqSMynHjYu2D5oE4fQOJQWyk5GQa43f5fkKue8pCsh17kD/A2ay3Nl6d9mEfgl3OWXPSdlU+zR4/mR19rYxl4Nng9myfNudWh0Tyl9h3My7wVQqJ5OFDXYUmr8YE+1VwREwJcAhy/ugiY7FMBxbU6WLQpgXMphLwMn0E6HOJxl+94YznP5Pyhv78AG1+vW7cizIF+Q5//rIt9hjnkfQvpbCvJchm2fgFzaw7o5efoRSNZMAuxtYQBLGXvQrPRZmoCF5w/FQIYBD4Mcs+Q6tzPg4dKs8/+x0BpQTNsPhTMg57VmKOZy4gzFIVUiAiIQhQCHMCY7lrwX0p+by8OLp8v8l5uQnhfs30AzIfbq2BgvhpxrsySXmL0/rsa2h7IjUJBrD9A1yDO/wAEGVrzY71iwr98mfknx7v2b/RJoeysJLEarqJd6rXvSopX8fjfiU3v8HG5hkc83CW963gt9zrcA13wruGZQehEQgUYSuBlev+ro+S5IzyAiayP45+3ZDSXrU3r7F2LpMg9lS6TfPFc2u9sHTS7OJX/jX/a8sPcnlHEIx8UYvHHCbpGRyY+LdpRsOwn7de0ugaTdb5zvL4MDe3p+C100BCbvQR0c7hqK6SQYCmZVIgK1E7gTHsx19GIE6Sfk8jCA4J2WjT2BRDMyCadm1stW2e29Uy7RZvg/H9TkkizzL3s42PMTwiahkH0dC7of6QcFUJdj/yuOZe6O9Hk2jkUoeQcJXIw2L4rcbp6jh0Wu463iFcC8hUIrItBqAvPROr5AzcXWReL8kI/LF/ivkZ/zX4yx/ufNPxbL/XJp+KW9am5b2b/seWLXewg7EoVwAqWLXYXEg9r8S+zn8JqLMYA8xiWD0ooACPB8dL0GuIJbHhlOh7iMbgpgoiNWBSKQDIHrHT3hRWjXTB4GD/tn/i9bZX2vZxI9jPU7M/+XrXIOzuhMot0y6zarrHuKTUKLNPSDQzcuxiG7S0sy8I74spI0RbuPxUZOzJSJgC0Bfh4vsk1cIR1vPHaokN86qwIYa1RKKAKNJ3ArWuA6XLFHptV8Kmkk8/+gVV4s2fuRNU7IdQkotkR6M+mQ16q9s4VZrD+ONNkhLIssfZMwkHtH373FO+7BZk7ULbOfIAHnKrjY25B4H5cMSisCIMCA+qnIJBhYnxy5jjeKVwAzDMqqQwTSIHAv3HjI0RV+UY7r5cn3iAwq6lHsLAoebsT21wZlzOzjY58cNqJtAm31xpr9Hw7N0I8QdhwKGe1YECfovmiRh5xceqZYJK/drhOKmU/WbQKPoflXDgHB8ajDXDeiVacAJhpaFSwCyRHgXf5UR68mIP1IL8/k3tJmcRsSzS9IyDkf7Bmxtcm9hNtj6XpBdOntGeQPA6mjByUo2LcQ2/63YHvRJvZWXVi0o2Tbodi/YUka7RaBPIELsCE7tJvfH+J/9pweEqKgQWXwGXGZCIhAdwhMQ1M/4tDclZCW7yl5AMoOJ5UVcW2fBAxqfgZxDoeN8YkbXqd2gTgnx9Y4cfcm28Ql6Q7E/s1L0uR3L8CGPaGd8zsK/ueXCQNFLl3auDHS80vie5BMBGwJsBeUE3pjz1N5P+pgEG/b44qkbqYAxo2XUotA0wn8HA3gl6vL0zQMHvg48PqQjbGnh/UUGb+kb4BsA5itkJbBg0vwhOTLzYF4kQ5hJ6EQl8CCdY6HvsGVyEbfzoOifUlE9l/FD5/AS6jyEih2ALMf6mDPKYdIo9gKUUpVoSIgAqkS4JwQ1y92XoSOgEZZNorzbO4ZkPZ67LN9H8VYpD0Syj/OPaD4N3YxgHquLJHF/olIc5BFurqScCIvgzyZCLgQ4DtheCMT01ZB4afErKCLPTBbAuiBEO9YeDeYFf79nf9t9zEdLZs+v+6y36Ttt8zW1y9N2fYqZfjm5V3sU9DTdE5WCwHOt7gZcnmihwHMCGRr05Bw0NNOHI5igMOhKRv7IyTawCZhJs11mfUqq4ch83pVCoicd3WUfwz0lcj1qPh2EbgXzeFQ0uGRm3Ucyudnc16MeroYwLwTIL8VA2aiZdoGG3TfNm0+3aC82X0MYM6GvsSNstoIXI+aP+VQ+9pIS9kaL4yDbCF2ch6MbQAzaVBhBfvYRT69YLvrJl4fOUSTunE47msQh+5kImBDgDfw50OxAxgO/7IO1hXcuhjAdG2smEEDzSzf/K++v+xWlNVLgO8m4ZNArr0aNl6zW5rDN2XGSb4fLkvkub9sCMu22O2QkJOIUzdOFOZ7am5K3VH5lxSBa+DNw9CEyF6djvJ/AC0JXU8X58Ck8kUe+lg2pbyuBZApHhcO4d0RybG7US4vimXGIOfZskSe+9nDtNgzbzYbezZWzW5IdJ1zk5rQU5Qovs66xevAj4bQ+v1QB4ehg1sXA5jgEFWgEwEz/OSUSYmDEuAxKBvm8a2Q82ts7rTmIp3ry9tsfQrRNk4ePsq2wgTScZL1uAT8kAvNInAR3LWdUO/bsjHIeKpv5kH5uhjAqAdm0Cci/j4FMPEZ29QwBYlsAg2bskwaHtvrzT8lS04mvqEkjc9uvmfGZgirrGxOco5y11hWsef+zZDvYM+8ytZdApyL9sshNP8E1OEyj87KJQUwVpiUSARaR+A+tOjBwK1il7TL5FkGUaGHFHkxfjRAu96DMpp2s6NhpAAHvmNFcKj1wiG0eQLq+P3Q9XRxEm9ohirPjYB6YNx4xUr9PAq+Hdo6YAUsj0GMrfG3imZCW9hmsEjHHqCqQdH6KONdFnXlk/DpxqvzGz3//wvk28cx70FIPxGa7ZhPybtN4HI0/2+g2EOQp6GOc6Gq5yeKeNO6GMA07a7KHKu2LF9vS0Na0I7r0IZTAraD819cLk7zkJ6TiUMFMPxshXgSh8HLRpCLvYjEZ0MPuWQakHYt7HMNYNZEHj6y+s0B5WqXCOQJzMQGBt7sdYxpHJbdEWIvaRDTEFIQjCrEgYACGAdYkZNy/JtfvCGMgcsUj4J+6pGnXxZODJ7Rb6fldt7gnGiZNpvsVvwzK7uh4jqDS7700dX4JTTKNZPSd57ABSAQ+9o8BnWcHJK0ApiQNFWWDYHYJ4mND0rzJgHeed0TCAbL4iPUrsYg6gXXTH3S34bt7NWpYnwt//4eBVyGPEs88vXLMgc7buy3c8D2PbBvpwH7tUsEighcj40PFO0IvO0klBdsMm8XA5jAx0PFiUBjCbwMz9lzEMIYPDznURAvmvd75CvKwuGj14t2OGw7HmnHOqRnUs4nutIxT1lytuOHZYkK9q+MbccUbNemdAi4DLMOy2veRPCR6tg2ARUcEaqSLgYwmgMT6tPjV06KJ69fS9qRi0MVIWyaZyGvIJ9PT0O+Oj6WzbvIKjYamX2+/Dn3Z2aVivvknYrtj/fZN2gzf3/GNQgbVJ72hSWwIYo7FNoGWhfiyxJT+F66BH7wfIxtZ6CCILFHFyfxdrHNsT+QLuWncKK6+Nv2tJxQ9yQ0vkJD2ZNTJQjh3JmPQ1U+G+zFuQ+qYrshMycZuhp7SmIE5nwcfCrkOrmSw2D7QaF7hVCkLAABBi5XQQwWOAdtLvRYTxw6nAXNhh6GOCTK3pGXoNj2G1RwC3RA5Io4OX0XiL22layLX+Z8SuAKiBccc8HkskjY7LQ9ZnnGl+yy37rxI7u/aFt2f3bdpDXL7L7suut+pl/AAmTJEOAF8y6oSgBzD/JX6YHgk0gMotaHfG06MvJCX8WOR2bXa+IzyHNtlUpL8jI4OgnKnmslWd64u2WeK8sSan+tBDjcR3FOyLYFnizGtmchBjgUe+NmZcT/OWzLIcyFUFXjHC4OIx1QtaCS/GzzKZACmBJQRbuvwUaqicaLmJHxP/s/12n5bdntZr9ZFu3LbsuuD8pTtC+fl92GVSdZsh5ZOAIM5Dn0ckCFIvnm2yp3iOxpmAEdUsEHtqGK8bFln+Gjm5BvdpWKS/JOw37y2aQkXX73odiwEcQ7e1kzCYyG2+v3VDQxmz2fDPyN+DnhjQTF3hsG17zeUgyGbOxyJDoT2sAmcYU0xyLvWdBTFcpwvtuoUpfyVifwOoqgZCIQkkCV4R/6MSWAM5yL4xvA8OLMru8qdhgyj3gUwB6SmOckv5ymQqdCLsYvoKOgb7pkUtpGERgDbyf0VOQ4e7v5YknqCYiBNoObWdBcyOxjL48xbudn+iNmQ6Tlpij3SOi/qpTv2l1apS7lFQERSJMAez/+A2JXtqtxHL9q8MA6OdzBOSg+k/t4UX4EqmIrIzMv3C7GXqeYw0fGl+9gZVXzj8NS13cHWC1MujraRG3Wp23smWHwwuUcaBb0AMR5OcOw01DJeZBt79AwfFIdIpAUAc5r4B2yq6Ym1Qo5IwLtJ7APmsgvM9dzdTrysIfKNR/T3wSNgnzsRGTyqVN53uTGIbA9fMCbPD53OyavliIgAiIgAiIgAiLgQ4C9nuyF8TYFMN7olFEEREAEREAERKACgaORlxOVvUwBjBc2ZRIBERABERABEahIYGPkZxDjZQpgvLApkwiIgAiIgAiIQAACHEZayaccBTA+1JRHBERABERABEQgBAFO5PWazKsAJgR+lSECIiACItA1Avr+DHPE+bj/9j5F6T0BPtSURwREQAREoOsE5gPA3RAfi84a/+dL5sZDa2R3aL0vgTzDvgmzOxTAZGloXQREQAREQATsCFyHZHtDRV++/BkABi/rQCM9TcSSk1Y3hPimZAY4q0DLQzIPAgpgPKApiwiIgAiIQOcJ8KV7/DHFfvYMdsyEbs8l4PtPxkJ8S+4m0AjE4GZTiAEOf8OKWgtiWg1VAUKRKYApoqJtIiACIiACIhCHAH9+g+Jr/GdDN0NZY9DCnpl1IQY2JrhhsGPEd6fw5yWYrrMBjgIYHH2ZCIiACIiACCRCwAQ4nGPzYIFPJsDhUBR7athrQzHQGektx2G5GsSentaaApjWHlo1TAREQAREoIUEsgHOPQXt4/wbBjAMcCjOt+GvVo9Am0HctibEOTo+PxKKbGmYApg0joO8EAEREAEREIEQBDg358me+EvzeeNL4ziBmOJQFHtvRiAGNwx0OHTFAIjyesEc8g3FFMAMBbMqEQEREAEREIEkCCyCF3N6KnKIQ08MYigGORyaYnAzAnHIik9WcR+Xy0O1mQKY2tCrYhEQAREQARFIjsAL8Iia1cczPh21NsQeGvbeMLih+BTVvtB60FBMAcxQMKsSERABERABEWgFAU4upmh3vLl46++lWDvqrf8ir3T28avIXFW8CIiACIiACIhARAIKYCLCVdEiIAIiIAIiIAJxCCiAicNVpYqACIiACIiACEQkoAAmIlwVLQIiIAIiIAIiEIeAApg4XFWqCIiACIiACIhARAIKYCLCVdEiIAIiIALWBF63TqmEIgACeoxaHwMRKCbAFzTxldwyERCB+AReQxU63+JzblUNCmBadTjVmIAEdkVZvw5YnooSARHoT4C9L/xdnlH9k7R6D0dD+GbbEcj8fhHfdssXxvEXp/lKfzJ6BeJL5p7u6XEsH4VmQdzeKVMA06nDrcY6EODFdGuH9EoqAiIgArYE2Ns0Cdod4s0Sl/wdIr7ldgzkYguQeB50H/QziC+Xmw7NhVptCmBafXjVOBEQAREQgUQIMGjZEToMOhzaHhoLVbXVUQDFAOjgXmHsobkZ+jH0U2gW1DpTANO6Q6oGiYAIiIAIJESAv/h8PHQyxJ4WBjKxbV1UwFf6U3zt/xToPOgq6GWoFaYAphWHUY0QAREQARFIjAB/4PCD0CkQe0fqMg5LHdvTbVh+B7oI4tBTo02PUTf68Ml5ERABERCBxAiwx+VL0C3QZ6E6gxdU/zu2G/77d+hG6AxoZaixph6YNA4do+MtoNd64mxziv/bLLNpsusmf35bv+1MlxX+/Z3/bfeZdPn8fDSZs+Yf4w6ZCIiACAQiwGtO3cahofdDn4HY+5KycS7Of0OnQV+AGNA0zhTApHHI2M34rjRccfaiX7DCgsw+c3FhAPMP0Oe5UyYCIiACAQhwJIGPGddp26Hyr0DvrtMJj7oPQp69oHOgv4PmQY0xDSGlcagWp+GGlxcMSvg5okZBDIp5J0LxosIuyjE9cZ3bZSIgAiIQisC2KOjLoQrzKOcDyHM91LTgxTSVr4z4NHQ1xEnGjTEFMGkcqi4dhyVpIJcXIiACLSHAG6QNamgLJ8d+G+KcEj7103Tj/BgGMQzIGmFd+uJM+YCwF6MrZoaTutJetVMERKB9BEbQpEuhD7WsaQzKGJB9Fap7WK4UrQKYUkRDSdCl46AAZigfKVUiAiIQicA7UC57KvaPVH4KxX4KTpwLMaBJ1rr0xZnsQYBjXeqB4RNQMhEQARFoIoG94fTl0FZNdN7R55OQ/vsQf6MpSVMAk8Zh6dJxUA9MGp85eSECIuBGgBNcL4E2dsvW6NRHwPvzoXEptqJLX5wp8jc+qQfGkAi/fAxFvhq+WJUoAiLQIQL83SK+vbaOycJ1Yz4UDnwX4tNKSZkCmDQOR5eOw7B7YFrzux9pfFTlhQh0jsAmaDF7IUY61/KlDeZvKv0zlNR3VVLOLGWltRYTGHYA06XerRZ/bNQ0EaiFAHsd+FQOe2C6bny8+s9TgqAAJo2j0aUv2WFP4iXbLvFN4xMtL0SgHQS+gGY09S3pMY7AF1Eoh5SSMAUwSRyGTn3BDrsHJo0jLC9EQASaRuBoOPynTXM6sr+roPxvQBtFrseqeAUwVpiiJ+Ir9rtiw+4NUQ9MVz5ZaqcIhCOwKYr6OrRiuCJbUxJ/ePgfoWFfy5cBqIOzDJJaNvwItT7Uq5kfCgaW5ou3aN1syy/75TXpzP78//m6svu5j5Zd2qybPPm0jfqxsDdarj8iIAJtJWCuT/n2/S02TMxv1P9vETgRa5dBP3hrSw0rCmBqgF5Q5VcKtqWyiSd4SL1YQ8P6XaRqcMW7Sg69cf4QfzBTVk5AvMoZKcVyyxUNaR8OMKcIzkACvMllkDcFenJgyog7FcBEhNuSonmCF53kTWmeb/DC98ecCr2SSEMZvBwHfbJmf36L+qkHoTnQfIg/0MlhUP6g3Qg0CWI383pQXcZA+YPQw3U5oHqTJ8Av4ecgnlvGxmLlTKjO70aeUzy/zLnGAGEhRH/XgDj/hOfYZr1lXb7Sh49DfwXJREAEIhDg2zNNEOay5AXEN/iJ0IzlRqPQ2zzb4tLuorQzUO9Z0D7QeKjMeKHlxfUY6LsQg8GicmNvo88yEXAh8GEkjv25LCqfQ+sXQ+z52RJaCSqztZBgF+iz0K0QA7GismNuewZ10l9jl2LFp74/NgVoKQIisJTAHlj1OaE4J2nM0mJqX6vjwnoDWs3fQ1mtYus3Qf7PQAwKfY6Fbx5eXLeCZCJgQ4C9G/dAvp83n3yPo76vQltDVYwBzyEQ51O+Cvn44pvnHNRnTAGMIaGlCAQgUCWAWTlA/SGKYLf2ryHfC4xrvvtQ1+nQaCikrY/CeLF+AXL1yTc9n5aQiYANgTOQyPdz5pqPQcb3oGzvhY2PNmn4+0W3Q64++aZn79HmPccUwPRAaCECIQjsiUJ8Tkz2wKQSwLAXxKcNPnkuRF2x3/GwP+oYVkD2GOrq0o/vobkyDwLswbgV8jlnXPM8jHqO9/DRJQt7k/4JGlZvzJd6zimAcTlKSisCJQR8AxgOd/CiVrdxPsm1kOtF0jX9YtTB14QPa94Pe2MuGUK7yOHPIJkIDCJwMHZyMrrreeOa/mbUwcmvw7KTURF7SFz9dE3PCccMmn7oWZfmwACcTATyBPbCBteTkekZwIQeQsn7ZvP/zkj0EuTTBts8C1E+h4yGbRwa+0/I1k/fdD9HHXyDqEwE+hH4b+zw/XzZ5rsGddTxZB6DM861sfXTNx2DJb4Xxie/AhiAk4lAnkDTA5iz0CCfC4JtHva8fCAPbYj/c6I0h61s/fVJx270dw6xTaqqWQQ2hLuxv+BvQh18zUBdxgm+z0E+549tHva++PaqKoCp65OhepMmsDe8sz0Bs+nuT6BV7DW4w9P/bFsGrZ+ZQDvXhA+8wA/ys+o+Th6WiUARAfYcVP18DcrP3ly+VqBuOw0OxBwmewrl+16vFMDU/elQ/UkS8A1g5qM1H4HqvPDsivoXQYMujlX2/QRlpzDPB24stx0U8y74lyifAaFMBPIEzseGKufRoLwc/n1XvsIa//9WxLaSA3t0B/Hot08BTI0fClWdLgHfAMacaE+iaf8DnQgNe/z6U6jT+BF6+TTKfhuUkjFgDN1OUx4Dwe1Taqx8SYLAWvDiIch8TkIvv5ZEK5c6sQ5W74vYXl9+CmCWHiOticBbBDj3wfekyud7BGV9G+J4MiegxjQ+DXQZlPch1P9/FdN5z7LHIN+NEdv8MU+/lK29BHiDE6uXk0/m8Gm71Oy9cOg1KNS1JEQ5CmBS+5TInyQIhAxgzInKk/9uiBNs94BiDMOsjXJ5ATR1hlzORrl1TihE9X3tSOyJdXE9r2+t2tFVAh9Fw0OeW9myPpkoVL7f6paI7c4ysF1XAJPoh0Vu1Utgn8gnKsd8fw59DtoW4ntbQhiHO/j0jO0FwCUdfU3VGAySp0t7bNNyHszoVBsuv2ohcC5qtf38uKTjy+rG19Iiu0rZC+PSnthpvQKYFe3aqlQi0FgCHIqJaTyHdu/pL7Hk2zwvhq6GFkC+xsBrlG/mAfno0w8G7K97F7vzvw+RaWjbAgVuAz0eumCV10gCPL940xHDLkGhnD+Xql0Jxx6EJqXqoI1fCmBsKCmNCNgRWBXJDuppHpbPQj4BFO92xkExjAEWh6ZStivg3JcgvtkzpK2OwhhYvgL5HJeQvqis+gmwtzTGHBX2ynL+WsrG69M1UCoBzMs+sBTA+FBTHhEoJ8AAJFYQUl57/xRTsIsBUsrG7vc7oAMiOBnjCyuCmyqywQTmwHd+flO3q+Agn/xLwZ7ycYIRqEwE2kxAd9pLjy4nx3LyXurGl23dnrqT8k8E+hD4BbZXGT7uU2zwzXehxGeCl+peIIeNOZzlbApgnJEpQ8MI6DO+9IDx5Xz3Lf036bUZSXsn50SgPwFOFm+CPQon2VtUtz0ABx7xcUIXdx9qytMkAvzCPgfyivCb1FALX3mxasKdIZvCi5pMBJpIYGZDnOZcMAYxddtUOPCijxMKYHyoKU+TCMyFs38C7QIdC10APQF10fj2XV60mmCcZNgUX5vAUz4OhwDnl6UwLGPbWl4f6zROeD7f1wEFML7klK9pBJ6Hw/8HnQLtDPGHzS6DOKzSFXsJDeU8mCYYx8Xpr0wEmkTgVTjbpM/tCzXD/RHqn+7rgwIYX3LK12QCvOv4PnQ0xPeNfAK6AWrShQfuOlvqTx85N0gZRCAxAnxooEnnWZ03NLx5/CLESftetqJXLmUSgfYQ4FwL6l8h9swcCTGw2QFqW4DP3xpim+q8aKF6K+O1if7KRKBJBPhyvFUa5PDYGn39POquNFm/bRfoGo+Fqm44Ad418fHHL0B7QwdC/wLdD7XF+PtKfFV/E2xNONmkL4ImMJWP8QmwB2Zc/GqC1VDXe5G+hhZ8s2or1ANTlaDyt5HAQjRqWk/80t8HOh7iW3Y3gppqG8Nxvi3Y662XQ270ZkOuT9WJQCgCm4YqKHI57C3aJHId+eJ5o3g29JeQ99CRKVQ9MIaEliJQTOBZbL4cOh3aFToDugJ6DmqarQuHmxIYcAhPJgJNJNCUz+6GgDvMG7LHUN/7oE9DnOwsEwERqInAFqj3zyD21LBHg3cWTdBH4WfqxhsrBolN4CkfdZzynwG+4Xbl1E8y+Mdhcs6Hy/sf+n/+TMA5EK+ZQW35oKWpMBHoHgEOw/KO61iIE4AnQbF7NnmB4QRXn/OXv5R9ApSybQDnOLlvvIeTi5FnEeTDxqM6ZWkpAZ5jPLd9AhHe0OwLpf5zGGfBRw7l+Fi/JzYZELF3he/C+RXEG7xLodlQcNMcmOBIVWDHCPBk/UVPvCDwLoMTZXkBjGW8SHAG/3EeFeyPPAwQHvfIO6wsB6Min+CFzD8G3QjFDiJRhazFBHiObQ3xxZeuk8l5c3EYlHIAw7lwh0M+disyfbBPRl4PF0DzIM4llImACIjAMgQ+gC38wvbRh5cpLZ0NDDyu9mwX5yVxXF8mAiEIMHC5G/I5xziMtHoIJyKVcSjKZbDh0zbeqMlEQAREwJvAtsjpO/fmTuTlHViKthec4hCQz4X1JuRTr3KKR7W5Pp3n+Vnk5/e0RJvN4VU+mOBzjrFn6t2JtktuiYAINIQA7w5vg3wuQszz/gTbyd6Xiyu0SXeGCR7UhrvEIMT3HLsDeccm2P4D4NMrnu2ai3x1vTsmQZRySQREwJfAl5HR9+L6EPKmdiE6Cj4t8WwTu8P3hGQiEJLARBTGp2h8z7O/COlMgLJWRhnsqfRtz4UBfFARIiACIrDcbmDgO4zEC9i3E2LIYOoeyPfCygmT+umBhA5oi1yp0ivI4Cel98J8Bv74nmPMd3yLjquaIgIiUCOB0ah7GuR7QeJ49hk1+m+qHoUVPu3h2w7m+7QpTEsRCEyAv43Gc8X383kz8qYwoXdf+PFChXbMQt61IJkIiIAIBCHwPpTie2FlvmehA6E67YuovEobeJc7oc4GqO5WE+A8ll9DVT6j5yI/bzjqsq1R8W+hKm34u7qcV70iIALtJLAGmuX7qKe5mHFiHu/O6jB2aVe5u2Ub/rkOx1Vnpwh8FK0154vv8lsoo46n5Bi8/Kai/7zR2RySiYAIiEBQAh9Bab4XVZPvSZRxZFCvBhfGu1He0Zn6fZe8sG41uCrtFYHKBDh0cj/k+zk1+dgTw5uOYdnuqCiE318flsOqRwREoFsEOL5+J2Qukr7LF1HG56CVoJjG4Z5LIF8/s/m+GtNRlS0CGQJ/iPXsZ893nW+K3jFTbqxVviqBNya+fpp8j6OMibGcVLkiIAIicAwQ+D6CbC5UZvkTlMU7t9DGXpfToJmQqavKkmP6evMuIMiGQoDvXroVqvKZNXkZWPw5tBoU2tgjyRfwVR2aNb5+KrSDKk8EREAEsgRWwD8XQuaiU3X5PMr6BrQDVNXYo8PhqWugqn6Z/Lw4MxiSicAwCeyHyhZC5nNYdXkbyuLnmL2oVY1zVL4Mheh1Me26BeXFCLKqtlX5RUAEWkZgItozGzIXnxBLBjL/A50AbQTZGicrbgd9Agp115ptD4M1Bm0yERg2AQYJ2c9iiHVOsv08tCu0MmRr6yDh4dB/QHwaL4Qvpgye+3tCydryyXomx0RABHwIcCiJAUeMpx14geTjpNOhh6AnoQXQEoi9LJzoyCBnG4hDUFtCMe7eOCnxQOhRSCYCwybA3pIrIPbGhDb27syE2DPDc42fcU5UfxliwD4WGg+NQLtAO0EbQzGMQ0dnxyhYZYqACIhAPwJfwQ5zFxV7yVf4L4YYxMSui+UzYJoMyUSgTgJvQ+VzoGF85jlcynPM99ejfXxkD2eMmyAUKxMBERCB/gTYG3IB5HPhSjkPg6Q/6N9s7RGBoRL4PdT2HJTyOePj2zS0adxQSaoyERABEcgQWBPrV0E+F7BU83w20z6tikAKBE6GExzeSfWccfVrBtoyIQWw8kEERKDbBNZF86+FXC9iqaVnF/rfdPtQqvUJE3g/fGtDEMOJxJy3JhMBERCBJAisDS8uh1ILSmz9WQTfP50ESTkhAv0JsCemycNJnJg/qX/ztEcEREAE6iGwKqr9FmQbNKSSbh58Pr0eZKpVBJwJHIQcj0CpnD+2flwGn9d3bq0yiIAIiMCQCPCVCR+HmnKXyO7sfYbERtWIQCgCb0dBUyHb4KHOdOzd5O+Rubx3BsllIiACIlAPgb1R7R1QnRfOsrr/C/5tUA8e1SoClQnwXS0MDEK+sbfsnHHd/wD8O7pyS1WACIiACAyZAH8N9yxoPuR64YuZ/m74cxIkE4E2EDgAjbgVinnOuJb9Cvz5DhTr5XcoWiYCIiAC8Qlsjyq+D9X9BAXfNvo5iBOOZSLQJgL8AcgPQfdBrsFGyPR8h9JPIPbAykRABESgNQT2REvOhYbdI/Nb1HkmNAGSiUCbCayDxnEOGn8eIGRgUlbWS6iPk3QPhTgPTiYCIiACrSTA3zD6a2gGFOunARgkXQ29D1oPkolAlwjwd5SOhS6GnoDKAhDf/fejbP6O0a5Qa00RWWsPrRomAt4E2O3NH4o7GNof2hrynVTLQIg9LXyq6KfQNIhzXWQi0HUCmwMAn7Q7BNoJ4ntYfJ8IegZ5H4RuhK6B+GOQvFlotSmAafXhVeNEIAgBDvGMQNtCDGY2hcZB/KXplaAVIAYqnEvzPPQ0NAu6C7oXmg3xAisTAREoJsCJ9RMhnl88zxjcjIe4nTcUK0LsjVkMvQDxdQhzIPa08DzjTQLPM56HnTEFMJ051GqoCAQnMAYl8sLK68hrEC+uiyCZCIhAGAKjUQw1CmIAwwCFTxLxfJOJgAiIgAiIgAiIgAiIgAiIgAiIgAiIgAiIgAiIgAiIgAiIgAiIgAiIgAiIgAiIgAiIgAiIgAiIgAiIgAiIgAiIgAiIgAiIgAiIgAiIgAiIgAiIgAiIgAiIgAiIgAiIgAiIgAiIgAiIgAiIgAiIgAiIgAiIgAiIgAiIgAiIgAiIgAi0msD/A8YfR7HaGY1vAAAAAElFTkSuQmCC;strokeWidth=2;rounded=0;" vertex="1" parent="drv6iqz0Df6hRnRfteLl-19">
          <mxGeometry x="15" y="12.560000000000002" width="90" height="34.87" as="geometry" />
        </mxCell>
        <mxCell id="drv6iqz0Df6hRnRfteLl-29" value="" style="shape=image;verticalLabelPosition=bottom;labelBackgroundColor=default;verticalAlign=top;aspect=fixed;imageAspect=0;image=https://avatars0.githubusercontent.com/u/54989751?s=200&amp;v=4;strokeWidth=2;rounded=0;" vertex="1" parent="1">
          <mxGeometry x="510" y="390" width="60" height="60" as="geometry" />
        </mxCell>
        <mxCell id="drv6iqz0Df6hRnRfteLl-6" value="" style="shape=image;verticalLabelPosition=bottom;labelBackgroundColor=default;verticalAlign=top;aspect=fixed;imageAspect=0;image=https://avatars.githubusercontent.com/u/1529926?s=200&amp;v=4;strokeWidth=2;rounded=0;" vertex="1" parent="1">
          <mxGeometry x="592" y="550" width="60" height="60" as="geometry" />
        </mxCell>
        <mxCell id="drv6iqz0Df6hRnRfteLl-8" value="" style="shape=image;verticalLabelPosition=bottom;labelBackgroundColor=default;verticalAlign=top;aspect=fixed;imageAspect=0;image=https://upload.wikimedia.org/wikipedia/commons/thumb/5/5e/Cassandra_logo.svg/1280px-Cassandra_logo.svg.png;strokeWidth=2;rounded=0;" vertex="1" parent="1">
          <mxGeometry x="670" y="580" width="65" height="43.55" as="geometry" />
        </mxCell>
        <mxCell id="drv6iqz0Df6hRnRfteLl-26" value="" style="shape=image;verticalLabelPosition=bottom;labelBackgroundColor=default;verticalAlign=top;aspect=fixed;imageAspect=0;image=https://upload.wikimedia.org/wikipedia/commons/thumb/2/29/Postgresql_elephant.svg/1985px-Postgresql_elephant.svg.png;strokeWidth=2;rounded=0;" vertex="1" parent="1">
          <mxGeometry x="520" y="610" width="72" height="74.23" as="geometry" />
        </mxCell>
        <mxCell id="drv6iqz0Df6hRnRfteLl-27" value="" style="shape=image;verticalLabelPosition=bottom;labelBackgroundColor=default;verticalAlign=top;aspect=fixed;imageAspect=0;image=https://www.mysql.com/common/logos/logo-mysql-170x115.png;strokeWidth=2;rounded=0;" vertex="1" parent="1">
          <mxGeometry x="600" y="649.9999999999999" width="86" height="58.15" as="geometry" />
        </mxCell>
        <mxCell id="drv6iqz0Df6hRnRfteLl-5" value="" style="shape=image;verticalLabelPosition=bottom;labelBackgroundColor=default;verticalAlign=top;aspect=fixed;imageAspect=0;image=https://upload.wikimedia.org/wikipedia/commons/thumb/1/1f/WebAssembly_Logo.svg/1280px-WebAssembly_Logo.svg.png;strokeWidth=2;rounded=0;" vertex="1" parent="1">
          <mxGeometry x="733" y="337.56" width="50" height="50" as="geometry" />
        </mxCell>
        <mxCell id="drv6iqz0Df6hRnRfteLl-10" value="" style="shape=image;verticalLabelPosition=bottom;labelBackgroundColor=default;verticalAlign=top;aspect=fixed;imageAspect=0;image=https://upload.wikimedia.org/wikipedia/commons/thumb/1/1f/WebAssembly_Logo.svg/1280px-WebAssembly_Logo.svg.png;strokeWidth=2;rounded=0;" vertex="1" parent="1">
          <mxGeometry x="733" y="395" width="50" height="50" as="geometry" />
        </mxCell>
        <mxCell id="drv6iqz0Df6hRnRfteLl-11" value="" style="shape=image;verticalLabelPosition=bottom;labelBackgroundColor=default;verticalAlign=top;aspect=fixed;imageAspect=0;image=https://upload.wikimedia.org/wikipedia/commons/thumb/1/1f/WebAssembly_Logo.svg/1280px-WebAssembly_Logo.svg.png;strokeWidth=2;rounded=0;" vertex="1" parent="1">
          <mxGeometry x="733" y="455" width="50" height="50" as="geometry" />
        </mxCell>
        <mxCell id="drv6iqz0Df6hRnRfteLl-12" value="" style="shape=image;verticalLabelPosition=bottom;labelBackgroundColor=default;verticalAlign=top;aspect=fixed;imageAspect=0;image=https://upload.wikimedia.org/wikipedia/commons/thumb/1/1f/WebAssembly_Logo.svg/1280px-WebAssembly_Logo.svg.png;strokeWidth=2;rounded=0;" vertex="1" parent="1">
          <mxGeometry x="803" y="337.56" width="50" height="50" as="geometry" />
        </mxCell>
        <mxCell id="drv6iqz0Df6hRnRfteLl-13" value="" style="shape=image;verticalLabelPosition=bottom;labelBackgroundColor=default;verticalAlign=top;aspect=fixed;imageAspect=0;image=https://upload.wikimedia.org/wikipedia/commons/thumb/1/1f/WebAssembly_Logo.svg/1280px-WebAssembly_Logo.svg.png;strokeWidth=2;rounded=0;" vertex="1" parent="1">
          <mxGeometry x="803" y="395" width="50" height="50" as="geometry" />
        </mxCell>
        <mxCell id="drv6iqz0Df6hRnRfteLl-14" value="" style="shape=image;verticalLabelPosition=bottom;labelBackgroundColor=default;verticalAlign=top;aspect=fixed;imageAspect=0;image=https://upload.wikimedia.org/wikipedia/commons/thumb/1/1f/WebAssembly_Logo.svg/1280px-WebAssembly_Logo.svg.png;strokeWidth=2;rounded=0;" vertex="1" parent="1">
          <mxGeometry x="803" y="455" width="50" height="50" as="geometry" />
        </mxCell>
        <mxCell id="drv6iqz0Df6hRnRfteLl-37" style="edgeStyle=orthogonalEdgeStyle;orthogonalLoop=1;jettySize=auto;html=1;exitX=1;exitY=0.25;exitDx=0;exitDy=0;entryX=0;entryY=0.25;entryDx=0;entryDy=0;strokeWidth=2;" edge="1" parent="1" source="drv6iqz0Df6hRnRfteLl-2" target="drv6iqz0Df6hRnRfteLl-36">
          <mxGeometry relative="1" as="geometry">
            <Array as="points">
              <mxPoint x="510" y="405" />
              <mxPoint x="510" y="370" />
            </Array>
          </mxGeometry>
        </mxCell>
        <mxCell id="BXOqnoNX5bFxCncvQAfk-2" value="Client Request/Response" style="edgeLabel;html=1;align=center;verticalAlign=middle;resizable=0;points=[];fontStyle=1" vertex="1" connectable="0" parent="drv6iqz0Df6hRnRfteLl-37">
          <mxGeometry x="0.2533" y="2" relative="1" as="geometry">
            <mxPoint x="-6" y="-9" as="offset" />
          </mxGeometry>
        </mxCell>
        <mxCell id="drv6iqz0Df6hRnRfteLl-42" value="" style="shape=image;verticalLabelPosition=bottom;labelBackgroundColor=default;verticalAlign=top;aspect=fixed;imageAspect=0;image=https://upload.wikimedia.org/wikipedia/commons/thumb/3/38/Prometheus_software_logo.svg/2066px-Prometheus_software_logo.svg.png;" vertex="1" parent="1">
          <mxGeometry x="715" y="634.64" width="50" height="49.59" as="geometry" />
        </mxCell>
        <mxCell id="drv6iqz0Df6hRnRfteLl-44" value="Client" style="rounded=1;whiteSpace=wrap;html=1;strokeWidth=2;fontStyle=1;fillColor=#dae8fc;strokeColor=#6c8ebf;" vertex="1" parent="1">
          <mxGeometry x="40" y="400" width="120" height="60" as="geometry" />
        </mxCell>
        <mxCell id="drv6iqz0Df6hRnRfteLl-45" value="Client" style="rounded=1;whiteSpace=wrap;html=1;strokeWidth=2;fontStyle=1;fillColor=#dae8fc;strokeColor=#6c8ebf;" vertex="1" parent="1">
          <mxGeometry x="30" y="410" width="120" height="60" as="geometry" />
        </mxCell>
        <mxCell id="drv6iqz0Df6hRnRfteLl-46" value="Client" style="rounded=1;whiteSpace=wrap;html=1;strokeWidth=2;fontStyle=1;fillColor=#dae8fc;strokeColor=#6c8ebf;" vertex="1" parent="1">
          <mxGeometry x="20" y="420" width="120" height="60" as="geometry" />
        </mxCell>
        <mxCell id="BXOqnoNX5bFxCncvQAfk-3" style="edgeStyle=orthogonalEdgeStyle;orthogonalLoop=1;jettySize=auto;html=1;exitX=0.5;exitY=1;exitDx=0;exitDy=0;entryX=0.07;entryY=0.4;entryDx=0;entryDy=0;entryPerimeter=0;strokeWidth=2;" edge="1" parent="1" source="drv6iqz0Df6hRnRfteLl-2" target="drv6iqz0Df6hRnRfteLl-40">
          <mxGeometry relative="1" as="geometry">
            <Array as="points">
              <mxPoint x="350" y="530" />
              <mxPoint x="390" y="530" />
              <mxPoint x="390" y="610" />
            </Array>
          </mxGeometry>
        </mxCell>
      </root>
    </mxGraphModel>
  </diagram>
  <diagram name="Copy of Page-1" id="28AIlF8uNalNuBU1agW0">
    <mxGraphModel dx="1234" dy="1106" grid="1" gridSize="10" guides="1" tooltips="1" connect="1" arrows="1" fold="1" page="1" pageScale="1" pageWidth="850" pageHeight="1100" math="0" shadow="0">
      <root>
        <mxCell id="1fYAyKANy_5_VKbp_94J-0" />
        <mxCell id="1fYAyKANy_5_VKbp_94J-1" parent="1fYAyKANy_5_VKbp_94J-0" />
        <mxCell id="1fYAyKANy_5_VKbp_94J-5" style="edgeStyle=orthogonalEdgeStyle;rounded=0;orthogonalLoop=1;jettySize=auto;html=1;exitX=1;exitY=0.5;exitDx=0;exitDy=0;entryX=0;entryY=0.5;entryDx=0;entryDy=0;strokeWidth=2;" edge="1" parent="1fYAyKANy_5_VKbp_94J-1" source="1fYAyKANy_5_VKbp_94J-6" target="1fYAyKANy_5_VKbp_94J-9">
          <mxGeometry relative="1" as="geometry" />
        </mxCell>
        <mxCell id="1fYAyKANy_5_VKbp_94J-6" value="Client" style="rounded=1;whiteSpace=wrap;html=1;strokeWidth=2;fontStyle=1;fillColor=#dae8fc;strokeColor=#6c8ebf;" vertex="1" parent="1fYAyKANy_5_VKbp_94J-1">
          <mxGeometry x="50" y="390" width="120" height="60" as="geometry" />
        </mxCell>
        <mxCell id="1fYAyKANy_5_VKbp_94J-7" value="" style="shape=image;verticalLabelPosition=bottom;labelBackgroundColor=default;verticalAlign=top;aspect=fixed;imageAspect=0;image=https://upload.wikimedia.org/wikipedia/commons/thumb/5/5b/HTTP_logo.svg/2560px-HTTP_logo.svg.png;strokeWidth=2;rounded=0;" vertex="1" parent="1fYAyKANy_5_VKbp_94J-1">
          <mxGeometry x="173.81" y="394.4" width="38.51" height="20.6" as="geometry" />
        </mxCell>
        <mxCell id="1fYAyKANy_5_VKbp_94J-8" value="" style="group;strokeWidth=2;fontStyle=1;rounded=0;fillColor=none;strokeColor=none;" vertex="1" connectable="0" parent="1fYAyKANy_5_VKbp_94J-1">
          <mxGeometry x="290" y="390" width="120" height="60" as="geometry" />
        </mxCell>
        <mxCell id="1fYAyKANy_5_VKbp_94J-9" value="&lt;b&gt;Tarmac&lt;/b&gt;" style="rounded=1;whiteSpace=wrap;html=1;labelPosition=center;verticalLabelPosition=top;align=center;verticalAlign=bottom;strokeWidth=2;fillColor=#f5f5f5;strokeColor=#666666;fontColor=#333333;" vertex="1" parent="1fYAyKANy_5_VKbp_94J-8">
          <mxGeometry width="120" height="60" as="geometry" />
        </mxCell>
        <mxCell id="1fYAyKANy_5_VKbp_94J-10" value="" style="shape=image;verticalLabelPosition=bottom;verticalAlign=top;imageAspect=0;aspect=fixed;image=data:image/png,iVBORw0KGgoAAAANSUhEUgAAAjAAAADZCAYAAAA+JQoMAAAAAXNSR0IArs4c6QAAAMJlWElmTU0AKgAAAAgABwESAAMAAAABAAEAAAEaAAUAAAABAAAAYgEbAAUAAAABAAAAagEoAAMAAAABAAIAAAExAAIAAAARAAAAcgEyAAIAAAAUAAAAhIdpAAQAAAABAAAAmAAAAAAAAABIAAAAAQAAAEgAAAABUGl4ZWxtYXRvciAzLjkuOAAAMjAyMToxMDoxNyAxNDoxMDoxNwAAA6ABAAMAAAABAAEAAKACAAQAAAABAAACMKADAAQAAAABAAAA2QAAAADdjcWiAAAACXBIWXMAAAsTAAALEwEAmpwYAAADqmlUWHRYTUw6Y29tLmFkb2JlLnhtcAAAAAAAPHg6eG1wbWV0YSB4bWxuczp4PSJhZG9iZTpuczptZXRhLyIgeDp4bXB0az0iWE1QIENvcmUgNi4wLjAiPgogICA8cmRmOlJERiB4bWxuczpyZGY9Imh0dHA6Ly93d3cudzMub3JnLzE5OTkvMDIvMjItcmRmLXN5bnRheC1ucyMiPgogICAgICA8cmRmOkRlc2NyaXB0aW9uIHJkZjphYm91dD0iIgogICAgICAgICAgICB4bWxuczp0aWZmPSJodHRwOi8vbnMuYWRvYmUuY29tL3RpZmYvMS4wLyIKICAgICAgICAgICAgeG1sbnM6ZXhpZj0iaHR0cDovL25zLmFkb2JlLmNvbS9leGlmLzEuMC8iCiAgICAgICAgICAgIHhtbG5zOnhtcD0iaHR0cDovL25zLmFkb2JlLmNvbS94YXAvMS4wLyI+CiAgICAgICAgIDx0aWZmOkNvbXByZXNzaW9uPjA8L3RpZmY6Q29tcHJlc3Npb24+CiAgICAgICAgIDx0aWZmOlJlc29sdXRpb25Vbml0PjI8L3RpZmY6UmVzb2x1dGlvblVuaXQ+CiAgICAgICAgIDx0aWZmOlhSZXNvbHV0aW9uPjcyPC90aWZmOlhSZXNvbHV0aW9uPgogICAgICAgICA8dGlmZjpZUmVzb2x1dGlvbj43MjwvdGlmZjpZUmVzb2x1dGlvbj4KICAgICAgICAgPHRpZmY6T3JpZW50YXRpb24+MTwvdGlmZjpPcmllbnRhdGlvbj4KICAgICAgICAgPGV4aWY6UGl4ZWxYRGltZW5zaW9uPjU2MDwvZXhpZjpQaXhlbFhEaW1lbnNpb24+CiAgICAgICAgIDxleGlmOkNvbG9yU3BhY2U+MTwvZXhpZjpDb2xvclNwYWNlPgogICAgICAgICA8ZXhpZjpQaXhlbFlEaW1lbnNpb24+MjE3PC9leGlmOlBpeGVsWURpbWVuc2lvbj4KICAgICAgICAgPHhtcDpDcmVhdG9yVG9vbD5QaXhlbG1hdG9yIDMuOS44PC94bXA6Q3JlYXRvclRvb2w+CiAgICAgICAgIDx4bXA6TW9kaWZ5RGF0ZT4yMDIxLTEwLTE3VDE0OjEwOjE3PC94bXA6TW9kaWZ5RGF0ZT4KICAgICAgPC9yZGY6RGVzY3JpcHRpb24+CiAgIDwvcmRmOlJERj4KPC94OnhtcG1ldGE+CrXx0l4AADJHSURBVHgB7Z0J3B1VecaBEAiELSxhTz4ggLIjO7IEKCAgZQeRTVuXVq12UX9aa4tWtLW02hbr0sUKAtKCBURZhJCwagAlKjuYBAJhTyBAICHQ54F7yDiZe+ecM+fcOTPzvL/f8818M2d5z3/uzH3nnDNzl1tOJgIiIAIiIAIiIAIiIAIiIAIiIAIiIAIiIAIiIAIiIAIiIAIiIAIiIAIiIAIiIAIiIAIiIAIiIAIiIAIiIAIiIAIiIAIiIAIiIAIiIAIiIAIiIAIiIAIiIAIiIAIiIAIiIAIiIAIiIAIiIAIiIAIiIAIiIAIiIAIiIAIiIAIiIAIiIAIiIAIiIAIiIAIiIAIiIAIiIAIiIAIiIAL+BJb3z6qcItAIAhPh5X7Q643wVk6KgAi4EOB32DzoamixS0albT6BFZvfBLVABAYS2AN7zx2YQjtFQASaTOB+OD8NUgDT5KPo4fsKHnmURQSaROC1JjkrX0VABJwJLHLOoQytIKAAphWHUY0QAREQAREQgW4RUADTreOt1oqACIiACIhAKwgogGnFYVQjREAEREAERKBbBBTAdOt4q7UiIAIiIAIi0AoCCmBacRjVCBEQAREQARHoFgEFMN063mqtCIiACIiACLSCgAKYVhxGNUIEREAEREAEukVAAUy3jrdaKwIiIAIiIAKtIKAAphWHUY0QAREQAREQgW4RUADTreOt1oqACIiACIhAKwgogGnFYVQjREAEREAERKBbBPRjjt063mqtPYHnkPRX9smVUgREoAIB/lr8mtAOEH9hWiYCpQQUwJQiUoKOErgT7Z7c0bar2SJQB4F3otKpkL6X6qDfwDo1hNTAgyaXRUAERKCFBNTz0sKDGrNJCmBi0lXZIiACIiACIiACUQgogImCVYWKgAiIgAiIgAjEJKAAJiZdlS0CIiACIiACIhCFgAKYKFhVqAiIgAiIgAiIQEwCCmBi0lXZIiACIiACIiACUQgogImCVYWKgAiIgAiIgAjEJBDiefuN4eC/QWMhvozImFnvt2Q6m3226fJl5fNl92fXXdMV5c1uM+umXP5vtmWX2XWT1iz75cnuN+tmmc2T3TZofdC+bHlFvma3ZddZJs3kL9o3D/vPh15lQpkIiIAIiIAIuBIIEcAwcDkEGuNaudJ3lsAjaPlFkAKYzn4E1HAREAERqEYgxBAS77BfqeaGcneMgD4vHTvgaq4IiIAIhCYQIoChT3qDYugjo/JEQAREQAREQAT6EggRwCh46YtXO/oQMPNj+uzWZhEQARFwIsDvIX0XOSFrfuIQc2BIQR+c5n8W1AIREAERaCIBDknzhyA/Dj3T07NY8mEBaj7E/yn+yvxCaBG0uCfzoAH+lTWJQKgApkltlq/1E9AFo/5jIA9EoC0EXkND1oPeNaBBS7CPDw1QL0AMaor0NLabIMgsF2AbgyQjBj+yBAgogEngIHTQBQUwHTzoarIIRCTAIGaQjcJOamWIT86uD5UZr1MMfF6G2HOTl+nZyQY9XOd25mFPjxF7e2SBCYQIYDT2GPigqDgREAEREIHaCfC7jd+Rq/XEd57ZGIMe9to8n1madfbqMMgxQQ+XHOZ6saeXMkuWIxtAIEQAM6B47RIBERABERCBThFgT89aPdk2nMNTHNrKi/N2ssEO17mNAVE+LYOgTpkCmE4d7mQaqyGkZA6FHBEBEUiAAIe2qHUcfGFvTbbHhuscvsoGPKbHh8NfplfI9AZxycCpsRYigNEQUmMPf22OK4CpDb0qFgERaAmBVdEOal3L9nCekJmTwyXn6TCoMZOVTbBjhrUY4DDweQq6B0rOQgQwbJQeo07u0MohERABERABEXiLAN/7xgnMlK3xqS326kyG7oKSslAvsgsVCCUFR85EI7ASSlYvTDS8KlgEREAEghDgdzt7eE4JUlrgQkIEHo/2Gjc645vpkRn2ki5kh7T61W+Trihv2TazP1u+2Va0LNqWzWvWzbIsvdlflN7sK1pmt5l12zJM+qJlv238zJQ99sj6Ze4EeB5yLN01QGR3ctWnHlg3g1MXM4+puuTJp+XnbBXIfN7y+/v9z0dbY7zTgwyy18N+9Rdt5x1vo+clFDVK2xpP4ES04O8hDiklYyECGI6TXZxMi+SICHSbwCfR/PdALgEiv/i/Af07VMXORubJkG3drPcJ6FSI4+y+9k5k/BfIJYBh7/M5UNU2o4jfsTH47wJoc8g1iKT/j0MnQJybIBOBVAhsAUeOgPjZTsZCBDDJNEaOiIAIvPFo5Q4eHPgW0ypf5uOQn1+8G3rU/XbkqRLATEb+nT3qrVJnv+r2xo5j+u202L4j0hwAXW6RVklEYJgETkNlF0KugXk0H0PMgYnmnAoWARFwJjAVOXyGRbZBvtWda1uagQHE+KX/Oq3t65R62cR7LbupdAt7fqaXpnJPwN6vqsbuepkIpEZgPzjE60QypgAmmUMhR0QgCIEHUMqDHiVxyGNTj3wmC3se+AIvH+MQkO+1iO/N8LmozkC+x3ycHZBnbew7bMB+212HImGVY2Fbj9KJgAuBVZH4JJcMsdP6XjRi+6XyRUAE/AhwMu6tHlk58XRXj3wmy4FmxWPJIa/1PPIxy1bQxh55r/PIU5bl95Bgk7JEFvv51EeIQMiiKiURAScCJyP1mk45IiZWABMRrooWgZoITPWsd3fPfBOQbzvPvMzGAMSnF4V5d4Fcn/jhkz63MHNgC3l3yrJ0fQ58gAqKm4ltZ0Jfh74HXQZNg9hDNxviO1BeghZDycz9gC912SRUfEhdlefr1STePBH9LwLNJ3AzmsCnWFzntHACKa8J/IJ3Mc5/8e1BMfXsj5XrzT8OSw4/udocZOAXVEjbHIUdFLDAPVHW9lBoPwO62Iqi+Fn4Qq4lHAplj6R5LQB7HDg8yOFKyqwzeH431DU7HQ3+3xQarQAmhaMgH0QgLIFHUBy/+PZxLJa9IBy+4KO8LjbZJXGftJyIyy+OJX32F21eDRt9nrgyAV5Rmb7bfh8ZQ3atc77BsZACGN8jYpePvVz5zx0/gwt7YilPQw9xJWdH4f8uBjAHoN08736V4zH0f9VFOXTkqlAEohPwHSIZB8/YC+NivFN1DZSKyt8JGxk8udgIErPnw9WmumYoSc8bwRhPDh2DcseW1K3d9RHgCyO7aPxMhhwu9WaoAMYbnTKKQNIEpnh4tzzy7OGYbwuk38oxT1Hy8djIIMbFdkZivjjOxXwnOQ+qg0MJ7xiUwHMfe8R8HhH3rE7ZRMCaAAP2taxTR0qoACYSWBUrAjUTuBP1z/XwgUEBAxlb2w0J17BNXJKO82BczKfn515U8IBLJRZpj0OaGHfjHNp4j0X9SiICwybAG5faJ/MqgBn2YVd9IjAcAk+iml94VMUhJM6/sLWDbBNapGPvD7+0bYwBg+twF8vlRGGfF/0xb5GtiY1HF+0ItO1QlMPeKZkIpESANzmczFtrDFFr5SkdDfkiAi0j8DraM82jTRshD++ubIxPOVV5d0y+DgYktk8z0c+35Quw+P8mizQuSfZF4kkuGRzTboL0td/pOvqs5N0gwB7TbetsqgKYOumrbhGIS+AGFM8JvS7Gng0+YWBjnPsS8subj6fublMx0tBH9n642HNIPN0lg0VavtjLZcjNoshlknDCpK7Vy2DRhpoJ8CnAWoc4dVLU/AlQ9SIQkcB9KLvo8c+yKjkp1cbY+7CSTULLNAwEbOe18KcLXG0GMsx1zTQgPXtHXIfQrkKemQPKLNrFO13bXrGi/NomArEInICCa5vMqwAm1mFVuSJQP4H5cOE2Dzf2RB6ba8Nkj7LLsvCpm7K6OU/GNsjK1sf3vyzJbqi4fjjyr+9YxjlI/yPHPByq4zthZCKQGoEt4RDnadViZReKWpxSpSIgAsEIXOdREoeGOMdkkPGdLTEeHeaY+oaDKsa+dSC+pdbVfFj0q4NBFO8+XYwvCLwBusIlUy8tAxgO78lEIDUCp8GhWmKJWipNjb78EYEWE2APzAuO7WOXcNnkPAYQmzqWa5OcdZf1rtA31ydzHkWeO20csEyzDdK5/owBA6gF0M8g10e5GSzuCslEIDUCB8Ihng9DNwUwQ0euCkVgqAT4Rcm5MC7G6wLfBzPIeNGytdeQkLIxzoPhENYgcw0cWBYDuWcHFeq473ikX8Uxzw976RnEXO2Yl2/75WRemQikRoDnwal1OKUApg7qqlMEhkdgEaryeXR4UBDB4ROXSbTXIv1shyZz0mq/axMDnLIemqKqbsDG14t2eGxbFXmOdsz3MNJPzeRhMGMb1JlsR2LF9ckrk1dLEYhJgMOpQ/9s9rtIxGyoyhYBERgugake1XGIiI9JFhnnqJT10GTzfRf/3JHdULLO7ugJfdLQJ5e6Wcyr0DSuBDIGd9s5lsUgLtsDxB6hex3LGEF6BneyZhN4Hu7/CmJQPx9aDLkGs8iSlG0Ob949bI/YLSkTARFoN4FfoHlPQbYviSMNBilbQ0WBB9+YOw6yMV6s+fTPOhCHXWyM82AYpMwqSMynHjYu2D5oE4fQOJQWyk5GQa43f5fkKue8pCsh17kD/A2ay3Nl6d9mEfgl3OWXPSdlU+zR4/mR19rYxl4Nng9myfNudWh0Tyl9h3My7wVQqJ5OFDXYUmr8YE+1VwREwJcAhy/ugiY7FMBxbU6WLQpgXMphLwMn0E6HOJxl+94YznP5Pyhv78AG1+vW7cizIF+Q5//rIt9hjnkfQvpbCvJchm2fgFzaw7o5efoRSNZMAuxtYQBLGXvQrPRZmoCF5w/FQIYBD4Mcs+Q6tzPg4dKs8/+x0BpQTNsPhTMg57VmKOZy4gzFIVUiAiIQhQCHMCY7lrwX0p+by8OLp8v8l5uQnhfs30AzIfbq2BgvhpxrsySXmL0/rsa2h7IjUJBrD9A1yDO/wAEGVrzY71iwr98mfknx7v2b/RJoeysJLEarqJd6rXvSopX8fjfiU3v8HG5hkc83CW963gt9zrcA13wruGZQehEQgUYSuBlev+ro+S5IzyAiayP45+3ZDSXrU3r7F2LpMg9lS6TfPFc2u9sHTS7OJX/jX/a8sPcnlHEIx8UYvHHCbpGRyY+LdpRsOwn7de0ugaTdb5zvL4MDe3p+C100BCbvQR0c7hqK6SQYCmZVIgK1E7gTHsx19GIE6Sfk8jCA4J2WjT2BRDMyCadm1stW2e29Uy7RZvg/H9TkkizzL3s42PMTwiahkH0dC7of6QcFUJdj/yuOZe6O9Hk2jkUoeQcJXIw2L4rcbp6jh0Wu463iFcC8hUIrItBqAvPROr5AzcXWReL8kI/LF/ivkZ/zX4yx/ufNPxbL/XJp+KW9am5b2b/seWLXewg7EoVwAqWLXYXEg9r8S+zn8JqLMYA8xiWD0ooACPB8dL0GuIJbHhlOh7iMbgpgoiNWBSKQDIHrHT3hRWjXTB4GD/tn/i9bZX2vZxI9jPU7M/+XrXIOzuhMot0y6zarrHuKTUKLNPSDQzcuxiG7S0sy8I74spI0RbuPxUZOzJSJgC0Bfh4vsk1cIR1vPHaokN86qwIYa1RKKAKNJ3ArWuA6XLFHptV8Kmkk8/+gVV4s2fuRNU7IdQkotkR6M+mQ16q9s4VZrD+ONNkhLIssfZMwkHtH373FO+7BZk7ULbOfIAHnKrjY25B4H5cMSisCIMCA+qnIJBhYnxy5jjeKVwAzDMqqQwTSIHAv3HjI0RV+UY7r5cn3iAwq6lHsLAoebsT21wZlzOzjY58cNqJtAm31xpr9Hw7N0I8QdhwKGe1YECfovmiRh5xceqZYJK/drhOKmU/WbQKPoflXDgHB8ajDXDeiVacAJhpaFSwCyRHgXf5UR68mIP1IL8/k3tJmcRsSzS9IyDkf7Bmxtcm9hNtj6XpBdOntGeQPA6mjByUo2LcQ2/63YHvRJvZWXVi0o2Tbodi/YUka7RaBPIELsCE7tJvfH+J/9pweEqKgQWXwGXGZCIhAdwhMQ1M/4tDclZCW7yl5AMoOJ5UVcW2fBAxqfgZxDoeN8YkbXqd2gTgnx9Y4cfcm28Ql6Q7E/s1L0uR3L8CGPaGd8zsK/ueXCQNFLl3auDHS80vie5BMBGwJsBeUE3pjz1N5P+pgEG/b44qkbqYAxo2XUotA0wn8HA3gl6vL0zQMHvg48PqQjbGnh/UUGb+kb4BsA5itkJbBg0vwhOTLzYF4kQ5hJ6EQl8CCdY6HvsGVyEbfzoOifUlE9l/FD5/AS6jyEih2ALMf6mDPKYdIo9gKUUpVoSIgAqkS4JwQ1y92XoSOgEZZNorzbO4ZkPZ67LN9H8VYpD0Syj/OPaD4N3YxgHquLJHF/olIc5BFurqScCIvgzyZCLgQ4DtheCMT01ZB4afErKCLPTBbAuiBEO9YeDeYFf79nf9t9zEdLZs+v+6y36Ttt8zW1y9N2fYqZfjm5V3sU9DTdE5WCwHOt7gZcnmihwHMCGRr05Bw0NNOHI5igMOhKRv7IyTawCZhJs11mfUqq4ch83pVCoicd3WUfwz0lcj1qPh2EbgXzeFQ0uGRm3Ucyudnc16MeroYwLwTIL8VA2aiZdoGG3TfNm0+3aC82X0MYM6GvsSNstoIXI+aP+VQ+9pIS9kaL4yDbCF2ch6MbQAzaVBhBfvYRT69YLvrJl4fOUSTunE47msQh+5kImBDgDfw50OxAxgO/7IO1hXcuhjAdG2smEEDzSzf/K++v+xWlNVLgO8m4ZNArr0aNl6zW5rDN2XGSb4fLkvkub9sCMu22O2QkJOIUzdOFOZ7am5K3VH5lxSBa+DNw9CEyF6djvJ/AC0JXU8X58Ck8kUe+lg2pbyuBZApHhcO4d0RybG7US4vimXGIOfZskSe+9nDtNgzbzYbezZWzW5IdJ1zk5rQU5Qovs66xevAj4bQ+v1QB4ehg1sXA5jgEFWgEwEz/OSUSYmDEuAxKBvm8a2Q82ts7rTmIp3ry9tsfQrRNk4ePsq2wgTScZL1uAT8kAvNInAR3LWdUO/bsjHIeKpv5kH5uhjAqAdm0Cci/j4FMPEZ29QwBYlsAg2bskwaHtvrzT8lS04mvqEkjc9uvmfGZgirrGxOco5y11hWsef+zZDvYM+8ytZdApyL9sshNP8E1OEyj87KJQUwVpiUSARaR+A+tOjBwK1il7TL5FkGUaGHFHkxfjRAu96DMpp2s6NhpAAHvmNFcKj1wiG0eQLq+P3Q9XRxEm9ohirPjYB6YNx4xUr9PAq+Hdo6YAUsj0GMrfG3imZCW9hmsEjHHqCqQdH6KONdFnXlk/DpxqvzGz3//wvk28cx70FIPxGa7ZhPybtN4HI0/2+g2EOQp6GOc6Gq5yeKeNO6GMA07a7KHKu2LF9vS0Na0I7r0IZTAraD819cLk7zkJ6TiUMFMPxshXgSh8HLRpCLvYjEZ0MPuWQakHYt7HMNYNZEHj6y+s0B5WqXCOQJzMQGBt7sdYxpHJbdEWIvaRDTEFIQjCrEgYACGAdYkZNy/JtfvCGMgcsUj4J+6pGnXxZODJ7Rb6fldt7gnGiZNpvsVvwzK7uh4jqDS7700dX4JTTKNZPSd57ABSAQ+9o8BnWcHJK0ApiQNFWWDYHYJ4mND0rzJgHeed0TCAbL4iPUrsYg6gXXTH3S34bt7NWpYnwt//4eBVyGPEs88vXLMgc7buy3c8D2PbBvpwH7tUsEighcj40PFO0IvO0klBdsMm8XA5jAx0PFiUBjCbwMz9lzEMIYPDznURAvmvd75CvKwuGj14t2OGw7HmnHOqRnUs4nutIxT1lytuOHZYkK9q+MbccUbNemdAi4DLMOy2veRPCR6tg2ARUcEaqSLgYwmgMT6tPjV06KJ69fS9qRi0MVIWyaZyGvIJ9PT0O+Oj6WzbvIKjYamX2+/Dn3Z2aVivvknYrtj/fZN2gzf3/GNQgbVJ72hSWwIYo7FNoGWhfiyxJT+F66BH7wfIxtZ6CCILFHFyfxdrHNsT+QLuWncKK6+Nv2tJxQ9yQ0vkJD2ZNTJQjh3JmPQ1U+G+zFuQ+qYrshMycZuhp7SmIE5nwcfCrkOrmSw2D7QaF7hVCkLAABBi5XQQwWOAdtLvRYTxw6nAXNhh6GOCTK3pGXoNj2G1RwC3RA5Io4OX0XiL22layLX+Z8SuAKiBccc8HkskjY7LQ9ZnnGl+yy37rxI7u/aFt2f3bdpDXL7L7suut+pl/AAmTJEOAF8y6oSgBzD/JX6YHgk0gMotaHfG06MvJCX8WOR2bXa+IzyHNtlUpL8jI4OgnKnmslWd64u2WeK8sSan+tBDjcR3FOyLYFnizGtmchBjgUe+NmZcT/OWzLIcyFUFXjHC4OIx1QtaCS/GzzKZACmBJQRbuvwUaqicaLmJHxP/s/12n5bdntZr9ZFu3LbsuuD8pTtC+fl92GVSdZsh5ZOAIM5Dn0ckCFIvnm2yp3iOxpmAEdUsEHtqGK8bFln+Gjm5BvdpWKS/JOw37y2aQkXX73odiwEcQ7e1kzCYyG2+v3VDQxmz2fDPyN+DnhjQTF3hsG17zeUgyGbOxyJDoT2sAmcYU0xyLvWdBTFcpwvtuoUpfyVifwOoqgZCIQkkCV4R/6MSWAM5yL4xvA8OLMru8qdhgyj3gUwB6SmOckv5ymQqdCLsYvoKOgb7pkUtpGERgDbyf0VOQ4e7v5YknqCYiBNoObWdBcyOxjL48xbudn+iNmQ6Tlpij3SOi/qpTv2l1apS7lFQERSJMAez/+A2JXtqtxHL9q8MA6OdzBOSg+k/t4UX4EqmIrIzMv3C7GXqeYw0fGl+9gZVXzj8NS13cHWC1MujraRG3Wp23smWHwwuUcaBb0AMR5OcOw01DJeZBt79AwfFIdIpAUAc5r4B2yq6Ym1Qo5IwLtJ7APmsgvM9dzdTrysIfKNR/T3wSNgnzsRGTyqVN53uTGIbA9fMCbPD53OyavliIgAiIgAiIgAiLgQ4C9nuyF8TYFMN7olFEEREAEREAERKACgaORlxOVvUwBjBc2ZRIBERABERABEahIYGPkZxDjZQpgvLApkwiIgAiIgAiIQAACHEZayaccBTA+1JRHBERABERABEQgBAFO5PWazKsAJgR+lSECIiACItA1Avr+DHPE+bj/9j5F6T0BPtSURwREQAREoOsE5gPA3RAfi84a/+dL5sZDa2R3aL0vgTzDvgmzOxTAZGloXQREQAREQATsCFyHZHtDRV++/BkABi/rQCM9TcSSk1Y3hPimZAY4q0DLQzIPAgpgPKApiwiIgAiIQOcJ8KV7/DHFfvYMdsyEbs8l4PtPxkJ8S+4m0AjE4GZTiAEOf8OKWgtiWg1VAUKRKYApoqJtIiACIiACIhCHAH9+g+Jr/GdDN0NZY9DCnpl1IQY2JrhhsGPEd6fw5yWYrrMBjgIYHH2ZCIiACIiACCRCwAQ4nGPzYIFPJsDhUBR7athrQzHQGektx2G5GsSentaaApjWHlo1TAREQAREoIUEsgHOPQXt4/wbBjAMcCjOt+GvVo9Am0HctibEOTo+PxKKbGmYApg0joO8EAEREAEREIEQBDg358me+EvzeeNL4ziBmOJQFHtvRiAGNwx0OHTFAIjyesEc8g3FFMAMBbMqEQEREAEREIEkCCyCF3N6KnKIQ08MYigGORyaYnAzAnHIik9WcR+Xy0O1mQKY2tCrYhEQAREQARFIjsAL8Iia1cczPh21NsQeGvbeMLih+BTVvtB60FBMAcxQMKsSERABERABEWgFAU4upmh3vLl46++lWDvqrf8ir3T28avIXFW8CIiACIiACIhARAIKYCLCVdEiIAIiIAIiIAJxCCiAicNVpYqACIiACIiACEQkoAAmIlwVLQIiIAIiIAIiEIeAApg4XFWqCIiACIiACIhARAIKYCLCVdEiIAIiIALWBF63TqmEIgACeoxaHwMRKCbAFzTxldwyERCB+AReQxU63+JzblUNCmBadTjVmIAEdkVZvw5YnooSARHoT4C9L/xdnlH9k7R6D0dD+GbbEcj8fhHfdssXxvEXp/lKfzJ6BeJL5p7u6XEsH4VmQdzeKVMA06nDrcY6EODFdGuH9EoqAiIgArYE2Ns0Cdod4s0Sl/wdIr7ldgzkYguQeB50H/QziC+Xmw7NhVptCmBafXjVOBEQAREQgUQIMGjZEToMOhzaHhoLVbXVUQDFAOjgXmHsobkZ+jH0U2gW1DpTANO6Q6oGiYAIiIAIJESAv/h8PHQyxJ4WBjKxbV1UwFf6U3zt/xToPOgq6GWoFaYAphWHUY0QAREQARFIjAB/4PCD0CkQe0fqMg5LHdvTbVh+B7oI4tBTo02PUTf68Ml5ERABERCBxAiwx+VL0C3QZ6E6gxdU/zu2G/77d+hG6AxoZaixph6YNA4do+MtoNd64mxziv/bLLNpsusmf35bv+1MlxX+/Z3/bfeZdPn8fDSZs+Yf4w6ZCIiACAQiwGtO3cahofdDn4HY+5KycS7Of0OnQV+AGNA0zhTApHHI2M34rjRccfaiX7DCgsw+c3FhAPMP0Oe5UyYCIiACAQhwJIGPGddp26Hyr0DvrtMJj7oPQp69oHOgv4PmQY0xDSGlcagWp+GGlxcMSvg5okZBDIp5J0LxosIuyjE9cZ3bZSIgAiIQisC2KOjLoQrzKOcDyHM91LTgxTSVr4z4NHQ1xEnGjTEFMGkcqi4dhyVpIJcXIiACLSHAG6QNamgLJ8d+G+KcEj7103Tj/BgGMQzIGmFd+uJM+YCwF6MrZoaTutJetVMERKB9BEbQpEuhD7WsaQzKGJB9Fap7WK4UrQKYUkRDSdCl46AAZigfKVUiAiIQicA7UC57KvaPVH4KxX4KTpwLMaBJ1rr0xZnsQYBjXeqB4RNQMhEQARFoIoG94fTl0FZNdN7R55OQ/vsQf6MpSVMAk8Zh6dJxUA9MGp85eSECIuBGgBNcL4E2dsvW6NRHwPvzoXEptqJLX5wp8jc+qQfGkAi/fAxFvhq+WJUoAiLQIQL83SK+vbaOycJ1Yz4UDnwX4tNKSZkCmDQOR5eOw7B7YFrzux9pfFTlhQh0jsAmaDF7IUY61/KlDeZvKv0zlNR3VVLOLGWltRYTGHYA06XerRZ/bNQ0EaiFAHsd+FQOe2C6bny8+s9TgqAAJo2j0aUv2WFP4iXbLvFN4xMtL0SgHQS+gGY09S3pMY7AF1Eoh5SSMAUwSRyGTn3BDrsHJo0jLC9EQASaRuBoOPynTXM6sr+roPxvQBtFrseqeAUwVpiiJ+Ir9rtiw+4NUQ9MVz5ZaqcIhCOwKYr6OrRiuCJbUxJ/ePgfoWFfy5cBqIOzDJJaNvwItT7Uq5kfCgaW5ou3aN1syy/75TXpzP78//m6svu5j5Zd2qybPPm0jfqxsDdarj8iIAJtJWCuT/n2/S02TMxv1P9vETgRa5dBP3hrSw0rCmBqgF5Q5VcKtqWyiSd4SL1YQ8P6XaRqcMW7Sg69cf4QfzBTVk5AvMoZKcVyyxUNaR8OMKcIzkACvMllkDcFenJgyog7FcBEhNuSonmCF53kTWmeb/DC98ecCr2SSEMZvBwHfbJmf36L+qkHoTnQfIg/0MlhUP6g3Qg0CWI383pQXcZA+YPQw3U5oHqTJ8Av4ecgnlvGxmLlTKjO70aeUzy/zLnGAGEhRH/XgDj/hOfYZr1lXb7Sh49DfwXJREAEIhDg2zNNEOay5AXEN/iJ0IzlRqPQ2zzb4tLuorQzUO9Z0D7QeKjMeKHlxfUY6LsQg8GicmNvo88yEXAh8GEkjv25LCqfQ+sXQ+z52RJaCSqztZBgF+iz0K0QA7GismNuewZ10l9jl2LFp74/NgVoKQIisJTAHlj1OaE4J2nM0mJqX6vjwnoDWs3fQ1mtYus3Qf7PQAwKfY6Fbx5eXLeCZCJgQ4C9G/dAvp83n3yPo76vQltDVYwBzyEQ51O+Cvn44pvnHNRnTAGMIaGlCAQgUCWAWTlA/SGKYLf2ryHfC4xrvvtQ1+nQaCikrY/CeLF+AXL1yTc9n5aQiYANgTOQyPdz5pqPQcb3oGzvhY2PNmn4+0W3Q64++aZn79HmPccUwPRAaCECIQjsiUJ8Tkz2wKQSwLAXxKcNPnkuRF2x3/GwP+oYVkD2GOrq0o/vobkyDwLswbgV8jlnXPM8jHqO9/DRJQt7k/4JGlZvzJd6zimAcTlKSisCJQR8AxgOd/CiVrdxPsm1kOtF0jX9YtTB14QPa94Pe2MuGUK7yOHPIJkIDCJwMHZyMrrreeOa/mbUwcmvw7KTURF7SFz9dE3PCccMmn7oWZfmwACcTATyBPbCBteTkekZwIQeQsn7ZvP/zkj0EuTTBts8C1E+h4yGbRwa+0/I1k/fdD9HHXyDqEwE+hH4b+zw/XzZ5rsGddTxZB6DM861sfXTNx2DJb4Xxie/AhiAk4lAnkDTA5iz0CCfC4JtHva8fCAPbYj/c6I0h61s/fVJx270dw6xTaqqWQQ2hLuxv+BvQh18zUBdxgm+z0E+549tHva++PaqKoCp65OhepMmsDe8sz0Bs+nuT6BV7DW4w9P/bFsGrZ+ZQDvXhA+8wA/ys+o+Th6WiUARAfYcVP18DcrP3ly+VqBuOw0OxBwmewrl+16vFMDU/elQ/UkS8A1g5qM1H4HqvPDsivoXQYMujlX2/QRlpzDPB24stx0U8y74lyifAaFMBPIEzseGKufRoLwc/n1XvsIa//9WxLaSA3t0B/Hot08BTI0fClWdLgHfAMacaE+iaf8DnQgNe/z6U6jT+BF6+TTKfhuUkjFgDN1OUx4Dwe1Taqx8SYLAWvDiIch8TkIvv5ZEK5c6sQ5W74vYXl9+CmCWHiOticBbBDj3wfekyud7BGV9G+J4MiegxjQ+DXQZlPch1P9/FdN5z7LHIN+NEdv8MU+/lK29BHiDE6uXk0/m8Gm71Oy9cOg1KNS1JEQ5CmBS+5TInyQIhAxgzInKk/9uiBNs94BiDMOsjXJ5ATR1hlzORrl1TihE9X3tSOyJdXE9r2+t2tFVAh9Fw0OeW9myPpkoVL7f6paI7c4ysF1XAJPoh0Vu1Utgn8gnKsd8fw59DtoW4ntbQhiHO/j0jO0FwCUdfU3VGAySp0t7bNNyHszoVBsuv2ohcC5qtf38uKTjy+rG19Iiu0rZC+PSnthpvQKYFe3aqlQi0FgCHIqJaTyHdu/pL7Hk2zwvhq6GFkC+xsBrlG/mAfno0w8G7K97F7vzvw+RaWjbAgVuAz0eumCV10gCPL940xHDLkGhnD+Xql0Jxx6EJqXqoI1fCmBsKCmNCNgRWBXJDuppHpbPQj4BFO92xkExjAEWh6ZStivg3JcgvtkzpK2OwhhYvgL5HJeQvqis+gmwtzTGHBX2ynL+WsrG69M1UCoBzMs+sBTA+FBTHhEoJ8AAJFYQUl57/xRTsIsBUsrG7vc7oAMiOBnjCyuCmyqywQTmwHd+flO3q+Agn/xLwZ7ycYIRqEwE2kxAd9pLjy4nx3LyXurGl23dnrqT8k8E+hD4BbZXGT7uU2zwzXehxGeCl+peIIeNOZzlbApgnJEpQ8MI6DO+9IDx5Xz3Lf036bUZSXsn50SgPwFOFm+CPQon2VtUtz0ABx7xcUIXdx9qytMkAvzCPgfyivCb1FALX3mxasKdIZvCi5pMBJpIYGZDnOZcMAYxddtUOPCijxMKYHyoKU+TCMyFs38C7QIdC10APQF10fj2XV60mmCcZNgUX5vAUz4OhwDnl6UwLGPbWl4f6zROeD7f1wEFML7klK9pBJ6Hw/8HnQLtDPGHzS6DOKzSFXsJDeU8mCYYx8Xpr0wEmkTgVTjbpM/tCzXD/RHqn+7rgwIYX3LK12QCvOv4PnQ0xPeNfAK6AWrShQfuOlvqTx85N0gZRCAxAnxooEnnWZ03NLx5/CLESftetqJXLmUSgfYQ4FwL6l8h9swcCTGw2QFqW4DP3xpim+q8aKF6K+O1if7KRKBJBPhyvFUa5PDYGn39POquNFm/bRfoGo+Fqm44Ad418fHHL0B7QwdC/wLdD7XF+PtKfFV/E2xNONmkL4ImMJWP8QmwB2Zc/GqC1VDXe5G+hhZ8s2or1ANTlaDyt5HAQjRqWk/80t8HOh7iW3Y3gppqG8Nxvi3Y662XQ270ZkOuT9WJQCgCm4YqKHI57C3aJHId+eJ5o3g29JeQ99CRKVQ9MIaEliJQTOBZbL4cOh3aFToDugJ6DmqarQuHmxIYcAhPJgJNJNCUz+6GgDvMG7LHUN/7oE9DnOwsEwERqInAFqj3zyD21LBHg3cWTdBH4WfqxhsrBolN4CkfdZzynwG+4Xbl1E8y+Mdhcs6Hy/sf+n/+TMA5EK+ZQW35oKWpMBHoHgEOw/KO61iIE4AnQbF7NnmB4QRXn/OXv5R9ApSybQDnOLlvvIeTi5FnEeTDxqM6ZWkpAZ5jPLd9AhHe0OwLpf5zGGfBRw7l+Fi/JzYZELF3he/C+RXEG7xLodlQcNMcmOBIVWDHCPBk/UVPvCDwLoMTZXkBjGW8SHAG/3EeFeyPPAwQHvfIO6wsB6Min+CFzD8G3QjFDiJRhazFBHiObQ3xxZeuk8l5c3EYlHIAw7lwh0M+disyfbBPRl4PF0DzIM4llImACIjAMgQ+gC38wvbRh5cpLZ0NDDyu9mwX5yVxXF8mAiEIMHC5G/I5xziMtHoIJyKVcSjKZbDh0zbeqMlEQAREwJvAtsjpO/fmTuTlHViKthec4hCQz4X1JuRTr3KKR7W5Pp3n+Vnk5/e0RJvN4VU+mOBzjrFn6t2JtktuiYAINIQA7w5vg3wuQszz/gTbyd6Xiyu0SXeGCR7UhrvEIMT3HLsDeccm2P4D4NMrnu2ai3x1vTsmQZRySQREwJfAl5HR9+L6EPKmdiE6Cj4t8WwTu8P3hGQiEJLARBTGp2h8z7O/COlMgLJWRhnsqfRtz4UBfFARIiACIrDcbmDgO4zEC9i3E2LIYOoeyPfCygmT+umBhA5oi1yp0ivI4Cel98J8Bv74nmPMd3yLjquaIgIiUCOB0ah7GuR7QeJ49hk1+m+qHoUVPu3h2w7m+7QpTEsRCEyAv43Gc8X383kz8qYwoXdf+PFChXbMQt61IJkIiIAIBCHwPpTie2FlvmehA6E67YuovEobeJc7oc4GqO5WE+A8ll9DVT6j5yI/bzjqsq1R8W+hKm34u7qcV70iIALtJLAGmuX7qKe5mHFiHu/O6jB2aVe5u2Ub/rkOx1Vnpwh8FK0154vv8lsoo46n5Bi8/Kai/7zR2RySiYAIiEBQAh9Bab4XVZPvSZRxZFCvBhfGu1He0Zn6fZe8sG41uCrtFYHKBDh0cj/k+zk1+dgTw5uOYdnuqCiE318flsOqRwREoFsEOL5+J2Qukr7LF1HG56CVoJjG4Z5LIF8/s/m+GtNRlS0CGQJ/iPXsZ893nW+K3jFTbqxVviqBNya+fpp8j6OMibGcVLkiIAIicAwQ+D6CbC5UZvkTlMU7t9DGXpfToJmQqavKkmP6evMuIMiGQoDvXroVqvKZNXkZWPw5tBoU2tgjyRfwVR2aNb5+KrSDKk8EREAEsgRWwD8XQuaiU3X5PMr6BrQDVNXYo8PhqWugqn6Z/Lw4MxiSicAwCeyHyhZC5nNYdXkbyuLnmL2oVY1zVL4Mheh1Me26BeXFCLKqtlX5RUAEWkZgItozGzIXnxBLBjL/A50AbQTZGicrbgd9Agp115ptD4M1Bm0yERg2AQYJ2c9iiHVOsv08tCu0MmRr6yDh4dB/QHwaL4Qvpgye+3tCydryyXomx0RABHwIcCiJAUeMpx14geTjpNOhh6AnoQXQEoi9LJzoyCBnG4hDUFtCMe7eOCnxQOhRSCYCwybA3pIrIPbGhDb27syE2DPDc42fcU5UfxliwD4WGg+NQLtAO0EbQzGMQ0dnxyhYZYqACIhAPwJfwQ5zFxV7yVf4L4YYxMSui+UzYJoMyUSgTgJvQ+VzoGF85jlcynPM99ejfXxkD2eMmyAUKxMBERCB/gTYG3IB5HPhSjkPg6Q/6N9s7RGBoRL4PdT2HJTyOePj2zS0adxQSaoyERABEcgQWBPrV0E+F7BU83w20z6tikAKBE6GExzeSfWccfVrBtoyIQWw8kEERKDbBNZF86+FXC9iqaVnF/rfdPtQqvUJE3g/fGtDEMOJxJy3JhMBERCBJAisDS8uh1ILSmz9WQTfP50ESTkhAv0JsCemycNJnJg/qX/ztEcEREAE6iGwKqr9FmQbNKSSbh58Pr0eZKpVBJwJHIQcj0CpnD+2flwGn9d3bq0yiIAIiMCQCPCVCR+HmnKXyO7sfYbERtWIQCgCb0dBUyHb4KHOdOzd5O+Rubx3BsllIiACIlAPgb1R7R1QnRfOsrr/C/5tUA8e1SoClQnwXS0MDEK+sbfsnHHd/wD8O7pyS1WACIiACAyZAH8N9yxoPuR64YuZ/m74cxIkE4E2EDgAjbgVinnOuJb9Cvz5DhTr5XcoWiYCIiAC8Qlsjyq+D9X9BAXfNvo5iBOOZSLQJgL8AcgPQfdBrsFGyPR8h9JPIPbAykRABESgNQT2REvOhYbdI/Nb1HkmNAGSiUCbCayDxnEOGn8eIGRgUlbWS6iPk3QPhTgPTiYCIiACrSTA3zD6a2gGFOunARgkXQ29D1oPkolAlwjwd5SOhS6GnoDKAhDf/fejbP6O0a5Qa00RWWsPrRomAt4E2O3NH4o7GNof2hrynVTLQIg9LXyq6KfQNIhzXWQi0HUCmwMAn7Q7BNoJ4ntYfJ8IegZ5H4RuhK6B+GOQvFlotSmAafXhVeNEIAgBDvGMQNtCDGY2hcZB/KXplaAVIAYqnEvzPPQ0NAu6C7oXmg3xAisTAREoJsCJ9RMhnl88zxjcjIe4nTcUK0LsjVkMvQDxdQhzIPa08DzjTQLPM56HnTEFMJ051GqoCAQnMAYl8sLK68hrEC+uiyCZCIhAGAKjUQw1CmIAwwCFTxLxfJOJgAiIgAiIgAiIgAiIgAiIgAiIgAiIgAiIgAiIgAiIgAiIgAiIgAiIgAiIgAiIgAiIgAiIgAiIgAiIgAiIgAiIgAiIgAiIgAiIgAiIgAiIgAiIgAiIgAiIgAiIgAiIgAiIgAiIgAiIgAiIgAiIgAiIgAiIgAiIgAiIgAiIgAiIgAi0msD/A8YfR7HaGY1vAAAAAElFTkSuQmCC;strokeWidth=2;rounded=0;" vertex="1" parent="1fYAyKANy_5_VKbp_94J-8">
          <mxGeometry x="15" y="12.560000000000002" width="90" height="34.87" as="geometry" />
        </mxCell>
        <mxCell id="1fYAyKANy_5_VKbp_94J-14" value="" style="shape=image;verticalLabelPosition=bottom;labelBackgroundColor=default;verticalAlign=top;aspect=fixed;imageAspect=0;image=https://upload.wikimedia.org/wikipedia/commons/thumb/2/29/Postgresql_elephant.svg/1985px-Postgresql_elephant.svg.png;strokeWidth=2;rounded=0;" vertex="1" parent="1fYAyKANy_5_VKbp_94J-1">
          <mxGeometry x="490" y="460" width="72" height="74.23" as="geometry" />
        </mxCell>
        <mxCell id="vhC4GJCCeLjf8q7Gj-6F-0" style="edgeStyle=orthogonalEdgeStyle;orthogonalLoop=1;jettySize=auto;html=1;exitX=0;exitY=0.75;exitDx=0;exitDy=0;entryX=1;entryY=0.75;entryDx=0;entryDy=0;strokeWidth=2;" edge="1" parent="1fYAyKANy_5_VKbp_94J-1" source="1fYAyKANy_5_VKbp_94J-16" target="1fYAyKANy_5_VKbp_94J-9">
          <mxGeometry relative="1" as="geometry">
            <Array as="points">
              <mxPoint x="470" y="394" />
              <mxPoint x="470" y="435" />
            </Array>
          </mxGeometry>
        </mxCell>
        <mxCell id="vhC4GJCCeLjf8q7Gj-6F-5" value="Capability Callbacks" style="edgeLabel;html=1;align=center;verticalAlign=middle;resizable=0;points=[];fontStyle=1" vertex="1" connectable="0" parent="vhC4GJCCeLjf8q7Gj-6F-0">
          <mxGeometry x="-0.1414" y="-3" relative="1" as="geometry">
            <mxPoint x="6" y="14" as="offset" />
          </mxGeometry>
        </mxCell>
        <mxCell id="1fYAyKANy_5_VKbp_94J-16" value="" style="shape=image;verticalLabelPosition=bottom;labelBackgroundColor=default;verticalAlign=top;aspect=fixed;imageAspect=0;image=https://upload.wikimedia.org/wikipedia/commons/thumb/1/1f/WebAssembly_Logo.svg/1280px-WebAssembly_Logo.svg.png;strokeWidth=2;rounded=0;" vertex="1" parent="1fYAyKANy_5_VKbp_94J-1">
          <mxGeometry x="640" y="345" width="65" height="65" as="geometry" />
        </mxCell>
        <mxCell id="1fYAyKANy_5_VKbp_94J-22" style="edgeStyle=orthogonalEdgeStyle;orthogonalLoop=1;jettySize=auto;html=1;exitX=1;exitY=0.25;exitDx=0;exitDy=0;entryX=0;entryY=0.25;entryDx=0;entryDy=0;strokeWidth=2;" edge="1" parent="1fYAyKANy_5_VKbp_94J-1" source="1fYAyKANy_5_VKbp_94J-9" target="1fYAyKANy_5_VKbp_94J-16">
          <mxGeometry relative="1" as="geometry">
            <mxPoint x="600" y="370" as="targetPoint" />
            <Array as="points">
              <mxPoint x="450" y="405" />
              <mxPoint x="450" y="361" />
            </Array>
          </mxGeometry>
        </mxCell>
        <mxCell id="vhC4GJCCeLjf8q7Gj-6F-4" value="Client Request/Response" style="edgeLabel;html=1;align=center;verticalAlign=middle;resizable=0;points=[];fontStyle=1" vertex="1" connectable="0" parent="1fYAyKANy_5_VKbp_94J-22">
          <mxGeometry x="-0.0226" y="-2" relative="1" as="geometry">
            <mxPoint x="23" y="-14" as="offset" />
          </mxGeometry>
        </mxCell>
        <mxCell id="1fYAyKANy_5_VKbp_94J-26" value="Client" style="rounded=1;whiteSpace=wrap;html=1;strokeWidth=2;fontStyle=1;fillColor=#dae8fc;strokeColor=#6c8ebf;" vertex="1" parent="1fYAyKANy_5_VKbp_94J-1">
          <mxGeometry x="40" y="400" width="120" height="60" as="geometry" />
        </mxCell>
        <mxCell id="1fYAyKANy_5_VKbp_94J-27" value="Client" style="rounded=1;whiteSpace=wrap;html=1;strokeWidth=2;fontStyle=1;fillColor=#dae8fc;strokeColor=#6c8ebf;" vertex="1" parent="1fYAyKANy_5_VKbp_94J-1">
          <mxGeometry x="30" y="410" width="120" height="60" as="geometry" />
        </mxCell>
        <mxCell id="1fYAyKANy_5_VKbp_94J-28" value="Client" style="rounded=1;whiteSpace=wrap;html=1;strokeWidth=2;fontStyle=1;fillColor=#dae8fc;strokeColor=#6c8ebf;" vertex="1" parent="1fYAyKANy_5_VKbp_94J-1">
          <mxGeometry x="20" y="420" width="120" height="60" as="geometry" />
        </mxCell>
        <mxCell id="vhC4GJCCeLjf8q7Gj-6F-2" style="edgeStyle=orthogonalEdgeStyle;orthogonalLoop=1;jettySize=auto;html=1;exitX=0.5;exitY=1;exitDx=0;exitDy=0;entryX=0;entryY=0.5;entryDx=0;entryDy=0;strokeWidth=2;" edge="1" parent="1fYAyKANy_5_VKbp_94J-1" source="1fYAyKANy_5_VKbp_94J-9" target="1fYAyKANy_5_VKbp_94J-14">
          <mxGeometry relative="1" as="geometry" />
        </mxCell>
        <mxCell id="vhC4GJCCeLjf8q7Gj-6F-3" value="&lt;b&gt;Database Callbacks&lt;/b&gt;" style="edgeLabel;html=1;align=center;verticalAlign=middle;resizable=0;points=[];" vertex="1" connectable="0" parent="vhC4GJCCeLjf8q7Gj-6F-2">
          <mxGeometry x="-0.7114" y="1" relative="1" as="geometry">
            <mxPoint x="59" y="7" as="offset" />
          </mxGeometry>
        </mxCell>
      </root>
    </mxGraphModel>
  </diagram>
</mxfile>
